<svg xmlns="http://www.w3.org/2000/svg" width="1080" height="1280" viewBox="0 0 1080 1280">
<defs>
  <linearGradient id="bg" x1="0" y1="0" x2="0" y2="1">
    <stop offset="0" stop-color="#0a1d31"></stop><stop offset=".55" stop-color="#0d2b48"></stop><stop offset="1" stop-color="#10243a"></stop>
  </linearGradient>
  <radialGradient id="glow" cx="50%" cy="64%" r="58%">
    <stop offset="0" stop-color="#2d7bac" stop-opacity=".55"></stop>
    <stop offset=".5" stop-color="#1d5f8c" stop-opacity=".18"></stop>
    <stop offset="1" stop-color="#0a1d31" stop-opacity="0"></stop>
  </radialGradient>
  <linearGradient id="line" x1="0" y1="0" x2="1" y2="1">
    <stop offset="0" stop-color="#d29a63"></stop><stop offset=".5" stop-color="#b5713f"></stop><stop offset="1" stop-color="#45A6DC"></stop>
  </linearGradient>
  <filter id="grain"><feTurbulence type="fractalNoise" baseFrequency="0.85" numOctaves="2" stitchTiles="stitch"></feTurbulence>
    <feColorMatrix type="saturate" values="0"></feColorMatrix>
    <feComponentTransfer><feFuncA type="linear" slope="0.05"></feFuncA></feComponentTransfer></filter>
</defs>
<rect width="1080" height="1280" fill="url(#bg)"></rect>
<rect width="1080" height="1280" fill="url(#glow)"></rect>
<g fill="none" stroke="url(#line)"><path d="M-20.0,881.8 L-8.0,879.9 L4.0,877.6 L16.0,874.7 L28.0,871.1 L40.0,866.8 L52.0,861.5 L64.0,855.3 L76.0,848.1 L88.0,839.9 L100.0,830.5 L112.0,820.0 L124.0,808.5 L136.0,795.9 L148.0,782.3 L160.0,767.9 L172.0,752.8 L184.0,737.0 L196.0,720.8 L208.0,704.3 L220.0,687.6 L232.0,671.0 L244.0,654.6 L256.0,638.6 L268.0,623.1 L280.0,608.3 L292.0,594.3 L304.0,581.2 L316.0,569.1 L328.0,557.9 L340.0,547.8 L352.0,538.7 L364.0,530.6 L376.0,523.4 L388.0,517.1 L400.0,511.6 L412.0,506.7 L424.0,502.4 L436.0,498.6 L448.0,495.1 L460.0,491.9 L472.0,488.8 L484.0,485.9 L496.0,483.0 L508.0,480.2 L520.0,477.4 L532.0,474.7 L544.0,472.1 L556.0,469.7 L568.0,467.5 L580.0,465.8 L592.0,464.5 L604.0,463.8 L616.0,463.8 L628.0,464.7 L640.0,466.5 L652.0,469.4 L664.0,473.4 L676.0,478.6 L688.0,485.0 L700.0,492.6 L712.0,501.4 L724.0,511.4 L736.0,522.4 L748.0,534.5 L760.0,547.5 L772.0,561.4 L784.0,575.9 L796.0,590.9 L808.0,606.4 L820.0,622.2 L832.0,638.1 L844.0,654.1 L856.0,670.0 L868.0,685.7 L880.0,701.2 L892.0,716.3 L904.0,731.0 L916.0,745.3 L928.0,759.1 L940.0,772.3 L952.0,785.0 L964.0,797.1 L976.0,808.6 L988.0,819.4 L1000.0,829.6 L1012.0,839.1 L1024.0,848.0 L1036.0,856.1 L1048.0,863.5 L1060.0,870.2 L1072.0,876.2 L1084.0,881.5 L1096.0,886.0 " stroke-opacity="0.30" stroke-width="2.2"></path><path d="M-20.0,910.8 L-8.0,908.9 L4.0,906.4 L16.0,903.2 L28.0,899.3 L40.0,894.4 L52.0,888.6 L64.0,881.8 L76.0,874.0 L88.0,865.1 L100.0,855.1 L112.0,844.1 L124.0,832.1 L136.0,819.2 L148.0,805.4 L160.0,791.0 L172.0,775.9 L184.0,760.3 L196.0,744.4 L208.0,728.3 L220.0,712.2 L232.0,696.2 L244.0,680.4 L256.0,665.0 L268.0,650.2 L280.0,636.0 L292.0,622.4 L304.0,609.7 L316.0,597.8 L328.0,586.9 L340.0,576.7 L352.0,567.5 L364.0,559.2 L376.0,551.6 L388.0,544.8 L400.0,538.7 L412.0,533.3 L424.0,528.3 L436.0,523.9 L448.0,519.8 L460.0,516.0 L472.0,512.5 L484.0,509.3 L496.0,506.2 L508.0,503.3 L520.0,500.5 L532.0,498.0 L544.0,495.7 L556.0,493.7 L568.0,492.1 L580.0,490.9 L592.0,490.2 L604.0,490.2 L616.0,490.8 L628.0,492.3 L640.0,494.6 L652.0,497.9 L664.0,502.2 L676.0,507.5 L688.0,513.9 L700.0,521.4 L712.0,530.0 L724.0,539.6 L736.0,550.2 L748.0,561.7 L760.0,574.1 L772.0,587.3 L784.0,601.2 L796.0,615.7 L808.0,630.6 L820.0,645.9 L832.0,661.5 L844.0,677.2 L856.0,693.0 L868.0,708.8 L880.0,724.4 L892.0,739.8 L904.0,755.0 L916.0,769.8 L928.0,784.1 L940.0,798.0 L952.0,811.3 L964.0,824.0 L976.0,836.1 L988.0,847.4 L1000.0,858.0 L1012.0,867.9 L1024.0,876.9 L1036.0,885.1 L1048.0,892.4 L1060.0,898.9 L1072.0,904.5 L1084.0,909.3 L1096.0,913.3 " stroke-opacity="0.46" stroke-width="2.2"></path><path d="M-20.0,939.5 L-8.0,937.3 L4.0,934.4 L16.0,930.7 L28.0,926.2 L40.0,920.7 L52.0,914.3 L64.0,906.9 L76.0,898.4 L88.0,889.0 L100.0,878.6 L112.0,867.3 L124.0,855.2 L136.0,842.2 L148.0,828.6 L160.0,814.3 L172.0,799.6 L184.0,784.5 L196.0,769.1 L208.0,753.7 L220.0,738.2 L232.0,722.8 L244.0,707.6 L256.0,692.8 L268.0,678.4 L280.0,664.6 L292.0,651.3 L304.0,638.7 L316.0,626.8 L328.0,615.6 L340.0,605.2 L352.0,595.6 L364.0,586.7 L376.0,578.6 L388.0,571.2 L400.0,564.5 L412.0,558.4 L424.0,552.8 L436.0,547.9 L448.0,543.4 L460.0,539.3 L472.0,535.6 L484.0,532.3 L496.0,529.3 L508.0,526.6 L520.0,524.2 L532.0,522.1 L544.0,520.4 L556.0,519.0 L568.0,518.0 L580.0,517.4 L592.0,517.4 L604.0,517.9 L616.0,519.0 L628.0,520.9 L640.0,523.5 L652.0,526.9 L664.0,531.1 L676.0,536.3 L688.0,542.4 L700.0,549.5 L712.0,557.6 L724.0,566.6 L736.0,576.6 L748.0,587.5 L760.0,599.3 L772.0,611.9 L784.0,625.2 L796.0,639.3 L808.0,653.9 L820.0,669.0 L832.0,684.5 L844.0,700.3 L856.0,716.3 L868.0,732.4 L880.0,748.5 L892.0,764.5 L904.0,780.2 L916.0,795.7 L928.0,810.7 L940.0,825.1 L952.0,839.0 L964.0,852.2 L976.0,864.6 L988.0,876.3 L1000.0,887.0 L1012.0,896.8 L1024.0,905.7 L1036.0,913.6 L1048.0,920.5 L1060.0,926.5 L1072.0,931.6 L1084.0,935.8 L1096.0,939.1 " stroke-opacity="0.62" stroke-width="1.4"></path><path d="M-20.0,967.4 L-8.0,964.7 L4.0,961.2 L16.0,956.8 L28.0,951.7 L40.0,945.6 L52.0,938.6 L64.0,930.7 L76.0,921.9 L88.0,912.2 L100.0,901.7 L112.0,890.4 L124.0,878.4 L136.0,865.7 L148.0,852.4 L160.0,838.7 L172.0,824.5 L184.0,810.0 L196.0,795.3 L208.0,780.5 L220.0,765.6 L232.0,750.7 L244.0,736.0 L256.0,721.5 L268.0,707.3 L280.0,693.5 L292.0,680.2 L304.0,667.4 L316.0,655.1 L328.0,643.5 L340.0,632.6 L352.0,622.4 L364.0,612.9 L376.0,604.1 L388.0,596.1 L400.0,588.8 L412.0,582.2 L424.0,576.3 L436.0,571.0 L448.0,566.4 L460.0,562.3 L472.0,558.8 L484.0,555.7 L496.0,553.1 L508.0,550.9 L520.0,549.1 L532.0,547.6 L544.0,546.5 L556.0,545.8 L568.0,545.4 L580.0,545.3 L592.0,545.7 L604.0,546.6 L616.0,547.9 L628.0,549.8 L640.0,552.4 L652.0,555.6 L664.0,559.5 L676.0,564.3 L688.0,569.9 L700.0,576.4 L712.0,583.8 L724.0,592.2 L736.0,601.6 L748.0,611.9 L760.0,623.2 L772.0,635.4 L784.0,648.4 L796.0,662.3 L808.0,676.9 L820.0,692.2 L832.0,707.9 L844.0,724.1 L856.0,740.6 L868.0,757.3 L880.0,774.0 L892.0,790.6 L904.0,807.0 L916.0,823.0 L928.0,838.5 L940.0,853.4 L952.0,867.7 L964.0,881.1 L976.0,893.6 L988.0,905.2 L1000.0,915.7 L1012.0,925.2 L1024.0,933.7 L1036.0,941.1 L1048.0,947.4 L1060.0,952.8 L1072.0,957.2 L1084.0,960.8 L1096.0,963.6 " stroke-opacity="0.72" stroke-width="1.4"></path><path d="M-20.0,993.9 L-8.0,990.6 L4.0,986.4 L16.0,981.5 L28.0,975.8 L40.0,969.3 L52.0,961.9 L64.0,953.8 L76.0,944.9 L88.0,935.3 L100.0,925.0 L112.0,914.0 L124.0,902.4 L136.0,890.2 L148.0,877.6 L160.0,864.5 L172.0,850.9 L184.0,837.1 L196.0,822.9 L208.0,808.6 L220.0,794.1 L232.0,779.5 L244.0,765.0 L256.0,750.5 L268.0,736.2 L280.0,722.1 L292.0,708.4 L304.0,695.1 L316.0,682.3 L328.0,670.1 L340.0,658.6 L352.0,647.7 L364.0,637.6 L376.0,628.3 L388.0,619.8 L400.0,612.1 L412.0,605.3 L424.0,599.3 L436.0,594.1 L448.0,589.7 L460.0,585.9 L472.0,582.8 L484.0,580.2 L496.0,578.2 L508.0,576.6 L520.0,575.4 L532.0,574.6 L544.0,574.1 L556.0,573.8 L568.0,573.8 L580.0,574.1 L592.0,574.7 L604.0,575.5 L616.0,576.8 L628.0,578.5 L640.0,580.6 L652.0,583.4 L664.0,586.8 L676.0,590.9 L688.0,595.9 L700.0,601.7 L712.0,608.6 L724.0,616.4 L736.0,625.3 L748.0,635.3 L760.0,646.3 L772.0,658.4 L784.0,671.5 L796.0,685.5 L808.0,700.4 L820.0,716.1 L832.0,732.4 L844.0,749.1 L856.0,766.2 L868.0,783.5 L880.0,800.9 L892.0,818.1 L904.0,835.0 L916.0,851.4 L928.0,867.2 L940.0,882.4 L952.0,896.6 L964.0,910.0 L976.0,922.3 L988.0,933.5 L1000.0,943.6 L1012.0,952.5 L1024.0,960.4 L1036.0,967.1 L1048.0,972.9 L1060.0,977.6 L1072.0,981.5 L1084.0,984.6 L1096.0,987.0 " stroke-opacity="0.69" stroke-width="1.4"></path><path d="M-20.0,1019.0 L-8.0,1015.0 L4.0,1010.4 L16.0,1005.1 L28.0,999.0 L40.0,992.3 L52.0,985.0 L64.0,976.9 L76.0,968.3 L88.0,959.0 L100.0,949.1 L112.0,938.7 L124.0,927.7 L136.0,916.2 L148.0,904.2 L160.0,891.7 L172.0,878.7 L184.0,865.3 L196.0,851.5 L208.0,837.4 L220.0,823.0 L232.0,808.5 L244.0,793.7 L256.0,779.0 L268.0,764.3 L280.0,749.7 L292.0,735.4 L304.0,721.5 L316.0,708.1 L328.0,695.2 L340.0,683.1 L352.0,671.7 L364.0,661.2 L376.0,651.6 L388.0,642.9 L400.0,635.2 L412.0,628.4 L424.0,622.7 L436.0,617.8 L448.0,613.8 L460.0,610.6 L472.0,608.0 L484.0,606.1 L496.0,604.7 L508.0,603.8 L520.0,603.2 L532.0,602.8 L544.0,602.6 L556.0,602.7 L568.0,602.8 L580.0,603.1 L592.0,603.5 L604.0,604.1 L616.0,604.9 L628.0,606.1 L640.0,607.7 L652.0,609.8 L664.0,612.6 L676.0,616.1 L688.0,620.5 L700.0,625.8 L712.0,632.2 L724.0,639.7 L736.0,648.4 L748.0,658.3 L760.0,669.4 L772.0,681.7 L784.0,695.2 L796.0,709.6 L808.0,725.1 L820.0,741.3 L832.0,758.2 L844.0,775.6 L856.0,793.3 L868.0,811.2 L880.0,829.0 L892.0,846.6 L904.0,863.8 L916.0,880.4 L928.0,896.2 L940.0,911.2 L952.0,925.2 L964.0,938.1 L976.0,949.9 L988.0,960.6 L1000.0,970.1 L1012.0,978.4 L1024.0,985.6 L1036.0,991.8 L1048.0,997.0 L1060.0,1001.3 L1072.0,1004.8 L1084.0,1007.7 L1096.0,1010.0 " stroke-opacity="0.66" stroke-width="1.4"></path><path d="M-20.0,1042.8 L-8.0,1038.5 L4.0,1033.6 L16.0,1028.1 L28.0,1022.1 L40.0,1015.5 L52.0,1008.4 L64.0,1000.8 L76.0,992.6 L88.0,983.9 L100.0,974.7 L112.0,964.9 L124.0,954.5 L136.0,943.6 L148.0,932.1 L160.0,920.0 L172.0,907.4 L184.0,894.2 L196.0,880.5 L208.0,866.3 L220.0,851.7 L232.0,836.8 L244.0,821.7 L256.0,806.4 L268.0,791.1 L280.0,775.9 L292.0,761.0 L304.0,746.5 L316.0,732.5 L328.0,719.1 L340.0,706.6 L352.0,694.9 L364.0,684.2 L376.0,674.6 L388.0,666.1 L400.0,658.6 L412.0,652.3 L424.0,647.0 L436.0,642.7 L448.0,639.3 L460.0,636.7 L472.0,634.8 L484.0,633.5 L496.0,632.6 L508.0,632.1 L520.0,631.8 L532.0,631.7 L544.0,631.6 L556.0,631.6 L568.0,631.5 L580.0,631.5 L592.0,631.5 L604.0,631.5 L616.0,631.8 L628.0,632.3 L640.0,633.3 L652.0,634.8 L664.0,637.0 L676.0,640.0 L688.0,644.0 L700.0,649.0 L712.0,655.3 L724.0,662.8 L736.0,671.6 L748.0,681.7 L760.0,693.2 L772.0,706.0 L784.0,720.0 L796.0,735.0 L808.0,751.1 L820.0,768.0 L832.0,785.5 L844.0,803.4 L856.0,821.6 L868.0,839.8 L880.0,857.9 L892.0,875.6 L904.0,892.7 L916.0,909.1 L928.0,924.6 L940.0,939.2 L952.0,952.7 L964.0,965.1 L976.0,976.2 L988.0,986.3 L1000.0,995.1 L1012.0,1002.9 L1024.0,1009.6 L1036.0,1015.3 L1048.0,1020.2 L1060.0,1024.3 L1072.0,1027.8 L1084.0,1030.8 L1096.0,1033.4 " stroke-opacity="0.63" stroke-width="1.4"></path><path d="M-20.0,1066.0 L-8.0,1061.5 L4.0,1056.7 L16.0,1051.4 L28.0,1045.7 L40.0,1039.5 L52.0,1032.9 L64.0,1025.9 L76.0,1018.3 L88.0,1010.3 L100.0,1001.6 L112.0,992.4 L124.0,982.6 L136.0,972.1 L148.0,960.9 L160.0,948.9 L172.0,936.3 L184.0,923.0 L196.0,909.1 L208.0,894.6 L220.0,879.5 L232.0,864.1 L244.0,848.3 L256.0,832.4 L268.0,816.4 L280.0,800.7 L292.0,785.2 L304.0,770.2 L316.0,755.8 L328.0,742.3 L340.0,729.6 L352.0,718.0 L364.0,707.5 L376.0,698.1 L388.0,690.0 L400.0,683.1 L412.0,677.3 L424.0,672.6 L436.0,669.0 L448.0,666.2 L460.0,664.2 L472.0,662.8 L484.0,661.9 L496.0,661.4 L508.0,661.0 L520.0,660.8 L532.0,660.6 L544.0,660.3 L556.0,659.9 L568.0,659.3 L580.0,658.7 L592.0,658.1 L604.0,657.6 L616.0,657.2 L628.0,657.1 L640.0,657.5 L652.0,658.6 L664.0,660.4 L676.0,663.2 L688.0,667.0 L700.0,672.1 L712.0,678.5 L724.0,686.3 L736.0,695.5 L748.0,706.1 L760.0,718.2 L772.0,731.6 L784.0,746.2 L796.0,761.9 L808.0,778.6 L820.0,796.0 L832.0,813.9 L844.0,832.2 L856.0,850.5 L868.0,868.8 L880.0,886.8 L892.0,904.2 L904.0,921.0 L916.0,937.0 L928.0,952.0 L940.0,965.9 L952.0,978.8 L964.0,990.5 L976.0,1001.1 L988.0,1010.5 L1000.0,1018.9 L1012.0,1026.3 L1024.0,1032.7 L1036.0,1038.4 L1048.0,1043.3 L1060.0,1047.5 L1072.0,1051.3 L1084.0,1054.7 L1096.0,1057.7 " stroke-opacity="0.60" stroke-width="1.4"></path><path d="M-20.0,1089.1 L-8.0,1084.9 L4.0,1080.4 L16.0,1075.5 L28.0,1070.3 L40.0,1064.8 L52.0,1058.8 L64.0,1052.4 L76.0,1045.5 L88.0,1038.0 L100.0,1029.8 L112.0,1021.0 L124.0,1011.4 L136.0,1001.0 L148.0,989.8 L160.0,977.7 L172.0,964.8 L184.0,951.2 L196.0,936.7 L208.0,921.6 L220.0,905.9 L232.0,889.8 L244.0,873.5 L256.0,856.9 L268.0,840.5 L280.0,824.3 L292.0,808.5 L304.0,793.3 L316.0,778.9 L328.0,765.4 L340.0,752.9 L352.0,741.6 L364.0,731.6 L376.0,722.8 L388.0,715.2 L400.0,708.9 L412.0,703.8 L424.0,699.7 L436.0,696.6 L448.0,694.4 L460.0,692.7 L472.0,691.6 L484.0,690.9 L496.0,690.3 L508.0,689.8 L520.0,689.3 L532.0,688.7 L544.0,687.9 L556.0,687.0 L568.0,685.8 L580.0,684.6 L592.0,683.3 L604.0,682.2 L616.0,681.3 L628.0,680.8 L640.0,680.9 L652.0,681.7 L664.0,683.4 L676.0,686.3 L688.0,690.3 L700.0,695.7 L712.0,702.5 L724.0,710.8 L736.0,720.7 L748.0,731.9 L760.0,744.6 L772.0,758.6 L784.0,773.8 L796.0,790.0 L808.0,807.1 L820.0,824.8 L832.0,842.8 L844.0,861.1 L856.0,879.4 L868.0,897.4 L880.0,915.0 L892.0,931.9 L904.0,948.2 L916.0,963.5 L928.0,977.9 L940.0,991.2 L952.0,1003.5 L964.0,1014.6 L976.0,1024.8 L988.0,1033.9 L1000.0,1042.0 L1012.0,1049.3 L1024.0,1055.8 L1036.0,1061.6 L1048.0,1066.8 L1060.0,1071.6 L1072.0,1075.9 L1084.0,1079.8 L1096.0,1083.5 " stroke-opacity="0.56" stroke-width="1.4"></path><path d="M-20.0,1112.9 L-8.0,1109.2 L4.0,1105.2 L16.0,1101.0 L28.0,1096.5 L40.0,1091.6 L52.0,1086.2 L64.0,1080.3 L76.0,1073.8 L88.0,1066.7 L100.0,1058.7 L112.0,1050.0 L124.0,1040.3 L136.0,1029.7 L148.0,1018.2 L160.0,1005.7 L172.0,992.3 L184.0,978.0 L196.0,962.9 L208.0,947.2 L220.0,930.9 L232.0,914.2 L244.0,897.4 L256.0,880.4 L268.0,863.7 L280.0,847.3 L292.0,831.5 L304.0,816.4 L316.0,802.3 L328.0,789.1 L340.0,777.2 L352.0,766.4 L364.0,757.0 L376.0,748.8 L388.0,741.9 L400.0,736.2 L412.0,731.6 L424.0,728.0 L436.0,725.3 L448.0,723.2 L460.0,721.7 L472.0,720.5 L484.0,719.6 L496.0,718.7 L508.0,717.8 L520.0,716.8 L532.0,715.6 L544.0,714.2 L556.0,712.6 L568.0,710.8 L580.0,709.0 L592.0,707.3 L604.0,705.7 L616.0,704.5 L628.0,703.9 L640.0,703.9 L652.0,704.8 L664.0,706.8 L676.0,710.0 L688.0,714.5 L700.0,720.5 L712.0,727.9 L724.0,736.9 L736.0,747.3 L748.0,759.2 L760.0,772.4 L772.0,786.9 L784.0,802.5 L796.0,818.9 L808.0,836.1 L820.0,853.7 L832.0,871.6 L844.0,889.6 L856.0,907.4 L868.0,924.9 L880.0,941.9 L892.0,958.3 L904.0,973.9 L916.0,988.6 L928.0,1002.4 L940.0,1015.2 L952.0,1027.0 L964.0,1037.9 L976.0,1047.8 L988.0,1056.9 L1000.0,1065.2 L1012.0,1072.7 L1024.0,1079.5 L1036.0,1085.8 L1048.0,1091.6 L1060.0,1096.9 L1072.0,1101.8 L1084.0,1106.4 L1096.0,1110.7 " stroke-opacity="0.53" stroke-width="1.4"></path><path d="M-20.0,1138.0 L-8.0,1134.9 L4.0,1131.5 L16.0,1128.0 L28.0,1124.0 L40.0,1119.6 L52.0,1114.7 L64.0,1109.1 L76.0,1102.8 L88.0,1095.6 L100.0,1087.6 L112.0,1078.6 L124.0,1068.6 L136.0,1057.5 L148.0,1045.5 L160.0,1032.4 L172.0,1018.3 L184.0,1003.4 L196.0,987.7 L208.0,971.4 L220.0,954.7 L232.0,937.6 L244.0,920.5 L256.0,903.5 L268.0,886.8 L280.0,870.6 L292.0,855.0 L304.0,840.4 L316.0,826.7 L328.0,814.2 L340.0,802.8 L352.0,792.7 L364.0,783.9 L376.0,776.3 L388.0,769.9 L400.0,764.7 L412.0,760.4 L424.0,757.0 L436.0,754.3 L448.0,752.1 L460.0,750.4 L472.0,748.9 L484.0,747.5 L496.0,746.1 L508.0,744.6 L520.0,742.9 L532.0,741.1 L544.0,739.0 L556.0,736.9 L568.0,734.6 L580.0,732.5 L592.0,730.4 L604.0,728.8 L616.0,727.6 L628.0,727.1 L640.0,727.4 L652.0,728.7 L664.0,731.2 L676.0,735.0 L688.0,740.1 L700.0,746.7 L712.0,754.7 L724.0,764.3 L736.0,775.3 L748.0,787.6 L760.0,801.1 L772.0,815.8 L784.0,831.4 L796.0,847.8 L808.0,864.7 L820.0,882.0 L832.0,899.5 L844.0,917.0 L856.0,934.2 L868.0,951.1 L880.0,967.4 L892.0,983.2 L904.0,998.2 L916.0,1012.4 L928.0,1025.8 L940.0,1038.4 L952.0,1050.1 L964.0,1060.9 L976.0,1071.0 L988.0,1080.4 L1000.0,1089.0 L1012.0,1097.0 L1024.0,1104.4 L1036.0,1111.3 L1048.0,1117.7 L1060.0,1123.7 L1072.0,1129.2 L1084.0,1134.3 L1096.0,1139.0 " stroke-opacity="0.50" stroke-width="1.4"></path><path d="M-20.0,1164.5 L-8.0,1162.0 L4.0,1159.2 L16.0,1156.1 L28.0,1152.6 L40.0,1148.4 L52.0,1143.6 L64.0,1138.0 L76.0,1131.6 L88.0,1124.2 L100.0,1115.7 L112.0,1106.2 L124.0,1095.7 L136.0,1084.0 L148.0,1071.3 L160.0,1057.6 L172.0,1042.9 L184.0,1027.5 L196.0,1011.4 L208.0,994.7 L220.0,977.8 L232.0,960.7 L244.0,943.6 L256.0,926.8 L268.0,910.4 L280.0,894.6 L292.0,879.6 L304.0,865.6 L316.0,852.5 L328.0,840.6 L340.0,829.9 L352.0,820.4 L364.0,812.0 L376.0,804.9 L388.0,798.7 L400.0,793.6 L412.0,789.3 L424.0,785.8 L436.0,782.8 L448.0,780.3 L460.0,778.0 L472.0,776.0 L484.0,774.0 L496.0,771.9 L508.0,769.8 L520.0,767.6 L532.0,765.2 L544.0,762.7 L556.0,760.2 L568.0,757.7 L580.0,755.5 L592.0,753.5 L604.0,752.0 L616.0,751.2 L628.0,751.1 L640.0,751.9 L652.0,753.9 L664.0,757.0 L676.0,761.4 L688.0,767.1 L700.0,774.3 L712.0,782.8 L724.0,792.8 L736.0,804.0 L748.0,816.5 L760.0,830.1 L772.0,844.7 L784.0,860.0 L796.0,876.0 L808.0,892.5 L820.0,909.2 L832.0,926.1 L844.0,942.9 L856.0,959.5 L868.0,975.8 L880.0,991.6 L892.0,1006.9 L904.0,1021.5 L916.0,1035.5 L928.0,1048.9 L940.0,1061.4 L952.0,1073.3 L964.0,1084.5 L976.0,1095.0 L988.0,1104.9 L1000.0,1114.1 L1012.0,1122.7 L1024.0,1130.8 L1036.0,1138.3 L1048.0,1145.3 L1060.0,1151.7 L1072.0,1157.7 L1084.0,1163.1 L1096.0,1168.0 " stroke-opacity="0.47" stroke-width="1.4"></path><path d="M-20.0,1192.4 L-8.0,1190.3 L4.0,1187.9 L16.0,1185.0 L28.0,1181.5 L40.0,1177.3 L52.0,1172.3 L64.0,1166.4 L76.0,1159.6 L88.0,1151.6 L100.0,1142.6 L112.0,1132.5 L124.0,1121.3 L136.0,1109.0 L148.0,1095.7 L160.0,1081.5 L172.0,1066.4 L184.0,1050.7 L196.0,1034.4 L208.0,1017.8 L220.0,1000.9 L232.0,984.1 L244.0,967.4 L256.0,951.0 L268.0,935.2 L280.0,920.0 L292.0,905.7 L304.0,892.2 L316.0,879.8 L328.0,868.4 L340.0,858.2 L352.0,849.0 L364.0,840.9 L376.0,833.8 L388.0,827.7 L400.0,822.4 L412.0,817.8 L424.0,813.8 L436.0,810.3 L448.0,807.2 L460.0,804.4 L472.0,801.7 L484.0,799.0 L496.0,796.4 L508.0,793.8 L520.0,791.1 L532.0,788.4 L544.0,785.8 L556.0,783.2 L568.0,780.9 L580.0,778.9 L592.0,777.3 L604.0,776.2 L616.0,775.9 L628.0,776.4 L640.0,777.9 L652.0,780.5 L664.0,784.2 L676.0,789.1 L688.0,795.4 L700.0,802.9 L712.0,811.7 L724.0,821.7 L736.0,833.0 L748.0,845.3 L760.0,858.6 L772.0,872.7 L784.0,887.6 L796.0,903.0 L808.0,918.8 L820.0,935.0 L832.0,951.2 L844.0,967.4 L856.0,983.5 L868.0,999.3 L880.0,1014.9 L892.0,1030.0 L904.0,1044.6 L916.0,1058.7 L928.0,1072.2 L940.0,1085.1 L952.0,1097.5 L964.0,1109.2 L976.0,1120.3 L988.0,1130.8 L1000.0,1140.7 L1012.0,1149.9 L1024.0,1158.5 L1036.0,1166.5 L1048.0,1173.9 L1060.0,1180.6 L1072.0,1186.6 L1084.0,1192.0 L1096.0,1196.8 " stroke-opacity="0.44" stroke-width="1.4"></path><path d="M-20.0,1221.1 L-8.0,1219.2 L4.0,1216.9 L16.0,1213.9 L28.0,1210.2 L40.0,1205.6 L52.0,1200.2 L64.0,1193.7 L76.0,1186.3 L88.0,1177.7 L100.0,1168.0 L112.0,1157.3 L124.0,1145.5 L136.0,1132.8 L148.0,1119.1 L160.0,1104.6 L172.0,1089.5 L184.0,1073.8 L196.0,1057.6 L208.0,1041.3 L220.0,1024.8 L232.0,1008.5 L244.0,992.3 L256.0,976.6 L268.0,961.4 L280.0,946.9 L292.0,933.1 L304.0,920.2 L316.0,908.2 L328.0,897.2 L340.0,887.1 L352.0,878.0 L364.0,869.8 L376.0,862.5 L388.0,856.0 L400.0,850.2 L412.0,845.1 L424.0,840.6 L436.0,836.5 L448.0,832.7 L460.0,829.2 L472.0,826.0 L484.0,822.8 L496.0,819.8 L508.0,816.9 L520.0,814.1 L532.0,811.5 L544.0,809.0 L556.0,806.7 L568.0,804.7 L580.0,803.2 L592.0,802.2 L604.0,801.8 L616.0,802.1 L628.0,803.2 L640.0,805.3 L652.0,808.4 L664.0,812.6 L676.0,817.8 L688.0,824.3 L700.0,831.9 L712.0,840.6 L724.0,850.4 L736.0,861.3 L748.0,873.2 L760.0,886.0 L772.0,899.5 L784.0,913.8 L796.0,928.5 L808.0,943.8 L820.0,959.3 L832.0,975.0 L844.0,990.9 L856.0,1006.7 L868.0,1022.4 L880.0,1037.9 L892.0,1053.1 L904.0,1068.0 L916.0,1082.5 L928.0,1096.5 L940.0,1110.0 L952.0,1123.0 L964.0,1135.3 L976.0,1147.1 L988.0,1158.1 L1000.0,1168.5 L1012.0,1178.2 L1024.0,1187.2 L1036.0,1195.4 L1048.0,1202.8 L1060.0,1209.5 L1072.0,1215.3 L1084.0,1220.4 L1096.0,1224.7 " stroke-opacity="0.40" stroke-width="1.4"></path><path d="M-20.0,1250.0 L-8.0,1248.1 L4.0,1245.4 L16.0,1242.1 L28.0,1237.8 L40.0,1232.7 L52.0,1226.7 L64.0,1219.6 L76.0,1211.5 L88.0,1202.3 L100.0,1192.1 L112.0,1181.0 L124.0,1168.9 L136.0,1155.9 L148.0,1142.1 L160.0,1127.7 L172.0,1112.8 L184.0,1097.4 L196.0,1081.7 L208.0,1065.8 L220.0,1050.0 L232.0,1034.3 L244.0,1018.8 L256.0,1003.7 L268.0,989.0 L280.0,975.0 L292.0,961.6 L304.0,949.0 L316.0,937.1 L328.0,926.1 L340.0,915.9 L352.0,906.5 L364.0,898.0 L376.0,890.2 L388.0,883.2 L400.0,876.8 L412.0,871.0 L424.0,865.8 L436.0,861.1 L448.0,856.8 L460.0,852.9 L472.0,849.3 L484.0,846.0 L496.0,842.9 L508.0,840.0 L520.0,837.4 L532.0,835.0 L544.0,833.0 L556.0,831.2 L568.0,829.9 L580.0,828.9 L592.0,828.6 L604.0,828.8 L616.0,829.7 L628.0,831.3 L640.0,833.8 L652.0,837.2 L664.0,841.5 L676.0,846.8 L688.0,853.1 L700.0,860.5 L712.0,868.8 L724.0,878.2 L736.0,888.6 L748.0,899.8 L760.0,912.0 L772.0,924.9 L784.0,938.5 L796.0,952.7 L808.0,967.5 L820.0,982.7 L832.0,998.2 L844.0,1013.9 L856.0,1029.8 L868.0,1045.6 L880.0,1061.4 L892.0,1077.1 L904.0,1092.5 L916.0,1107.5 L928.0,1122.2 L940.0,1136.3 L952.0,1149.9 L964.0,1162.8 L976.0,1175.1 L988.0,1186.6 L1000.0,1197.3 L1012.0,1207.2 L1024.0,1216.2 L1036.0,1224.3 L1048.0,1231.5 L1060.0,1237.7 L1072.0,1243.2 L1084.0,1247.7 L1096.0,1251.4 " stroke-opacity="0.37" stroke-width="1.4"></path><path d="M-20.0,1278.5 L-8.0,1276.1 L4.0,1272.9 L16.0,1269.0 L28.0,1264.1 L40.0,1258.4 L52.0,1251.7 L64.0,1244.0 L76.0,1235.4 L88.0,1225.9 L100.0,1215.4 L112.0,1204.0 L124.0,1191.9 L136.0,1179.0 L148.0,1165.5 L160.0,1151.5 L172.0,1137.0 L184.0,1122.1 L196.0,1107.0 L208.0,1091.8 L220.0,1076.6 L232.0,1061.5 L244.0,1046.6 L256.0,1031.9 L268.0,1017.7 L280.0,1003.9 L292.0,990.6 L304.0,977.9 L316.0,965.9 L328.0,954.6 L340.0,944.0 L352.0,934.1 L364.0,925.0 L376.0,916.6 L388.0,908.9 L400.0,901.9 L412.0,895.5 L424.0,889.8 L436.0,884.7 L448.0,880.1 L460.0,876.0 L472.0,872.3 L484.0,869.1 L496.0,866.2 L508.0,863.7 L520.0,861.6 L532.0,859.7 L544.0,858.3 L556.0,857.2 L568.0,856.4 L580.0,856.1 L592.0,856.3 L604.0,857.0 L616.0,858.3 L628.0,860.2 L640.0,862.8 L652.0,866.1 L664.0,870.3 L676.0,875.3 L688.0,881.2 L700.0,888.1 L712.0,895.9 L724.0,904.6 L736.0,914.3 L748.0,925.0 L760.0,936.5 L772.0,948.9 L784.0,962.1 L796.0,976.0 L808.0,990.6 L820.0,1005.7 L832.0,1021.3 L844.0,1037.2 L856.0,1053.4 L868.0,1069.8 L880.0,1086.1 L892.0,1102.3 L904.0,1118.4 L916.0,1134.1 L928.0,1149.3 L940.0,1164.0 L952.0,1178.1 L964.0,1191.4 L976.0,1203.9 L988.0,1215.5 L1000.0,1226.2 L1012.0,1236.0 L1024.0,1244.7 L1036.0,1252.4 L1048.0,1259.1 L1060.0,1264.8 L1072.0,1269.6 L1084.0,1273.5 L1096.0,1276.6 " stroke-opacity="0.34" stroke-width="1.4"></path><path d="M-20.0,1305.8 L-8.0,1302.8 L4.0,1299.0 L16.0,1294.4 L28.0,1289.0 L40.0,1282.7 L52.0,1275.5 L64.0,1267.5 L76.0,1258.6 L88.0,1248.9 L100.0,1238.4 L112.0,1227.2 L124.0,1215.4 L136.0,1202.9 L148.0,1189.9 L160.0,1176.4 L172.0,1162.5 L184.0,1148.3 L196.0,1133.9 L208.0,1119.3 L220.0,1104.6 L232.0,1089.9 L244.0,1075.3 L256.0,1060.8 L268.0,1046.6 L280.0,1032.8 L292.0,1019.3 L304.0,1006.3 L316.0,993.8 L328.0,982.0 L340.0,970.8 L352.0,960.3 L364.0,950.5 L376.0,941.5 L388.0,933.2 L400.0,925.7 L412.0,919.0 L424.0,913.0 L436.0,907.7 L448.0,903.1 L460.0,899.2 L472.0,895.8 L484.0,892.9 L496.0,890.6 L508.0,888.6 L520.0,887.1 L532.0,885.9 L544.0,885.0 L556.0,884.5 L568.0,884.3 L580.0,884.5 L592.0,885.0 L604.0,885.9 L616.0,887.2 L628.0,889.1 L640.0,891.5 L652.0,894.5 L664.0,898.2 L676.0,902.7 L688.0,908.1 L700.0,914.3 L712.0,921.4 L724.0,929.6 L736.0,938.7 L748.0,948.9 L760.0,960.0 L772.0,972.1 L784.0,985.1 L796.0,999.1 L808.0,1013.7 L820.0,1029.1 L832.0,1045.1 L844.0,1061.5 L856.0,1078.3 L868.0,1095.2 L880.0,1112.2 L892.0,1129.1 L904.0,1145.7 L916.0,1161.9 L928.0,1177.6 L940.0,1192.7 L952.0,1207.0 L964.0,1220.4 L976.0,1232.8 L988.0,1244.3 L1000.0,1254.7 L1012.0,1264.0 L1024.0,1272.2 L1036.0,1279.3 L1048.0,1285.4 L1060.0,1290.5 L1072.0,1294.6 L1084.0,1297.9 L1096.0,1300.5 " stroke-opacity="0.31" stroke-width="1.4"></path><path d="M-20.0,1331.7 L-8.0,1328.1 L4.0,1323.7 L16.0,1318.6 L28.0,1312.7 L40.0,1306.0 L52.0,1298.6 L64.0,1290.5 L76.0,1281.7 L88.0,1272.2 L100.0,1262.0 L112.0,1251.3 L124.0,1239.9 L136.0,1228.0 L148.0,1215.7 L160.0,1202.8 L172.0,1189.5 L184.0,1175.9 L196.0,1162.0 L208.0,1147.8 L220.0,1133.3 L232.0,1118.8 L244.0,1104.2 L256.0,1089.7 L268.0,1075.2 L280.0,1061.0 L292.0,1047.0 L304.0,1033.5 L316.0,1020.4 L328.0,1007.9 L340.0,996.1 L352.0,985.0 L364.0,974.6 L376.0,965.2 L388.0,956.6 L400.0,948.9 L412.0,942.0 L424.0,936.1 L436.0,931.0 L448.0,926.7 L460.0,923.2 L472.0,920.3 L484.0,918.0 L496.0,916.3 L508.0,915.0 L520.0,914.0 L532.0,913.4 L544.0,913.1 L556.0,913.0 L568.0,913.1 L580.0,913.4 L592.0,913.9 L604.0,914.7 L616.0,915.8 L628.0,917.3 L640.0,919.3 L652.0,921.7 L664.0,924.9 L676.0,928.7 L688.0,933.4 L700.0,939.0 L712.0,945.7 L724.0,953.3 L736.0,962.1 L748.0,972.0 L760.0,983.0 L772.0,995.2 L784.0,1008.4 L796.0,1022.6 L808.0,1037.7 L820.0,1053.6 L832.0,1070.1 L844.0,1087.2 L856.0,1104.5 L868.0,1122.1 L880.0,1139.7 L892.0,1157.1 L904.0,1174.1 L916.0,1190.7 L928.0,1206.5 L940.0,1221.6 L952.0,1235.8 L964.0,1249.0 L976.0,1261.1 L988.0,1272.1 L1000.0,1282.0 L1012.0,1290.7 L1024.0,1298.2 L1036.0,1304.7 L1048.0,1310.2 L1060.0,1314.7 L1072.0,1318.4 L1084.0,1321.4 L1096.0,1323.7 " stroke-opacity="0.28" stroke-width="1.4"></path><path d="M-20.0,1356.2 L-8.0,1352.0 L4.0,1347.2 L16.0,1341.8 L28.0,1335.7 L40.0,1329.1 L52.0,1321.8 L64.0,1313.9 L76.0,1305.4 L88.0,1296.4 L100.0,1286.7 L112.0,1276.6 L124.0,1265.9 L136.0,1254.6 L148.0,1242.9 L160.0,1230.6 L172.0,1217.8 L184.0,1204.5 L196.0,1190.8 L208.0,1176.7 L220.0,1162.3 L232.0,1147.6 L244.0,1132.7 L256.0,1117.7 L268.0,1102.8 L280.0,1088.0 L292.0,1073.4 L304.0,1059.2 L316.0,1045.5 L328.0,1032.4 L340.0,1020.1 L352.0,1008.6 L364.0,997.9 L376.0,988.3 L388.0,979.6 L400.0,972.0 L412.0,965.4 L424.0,959.8 L436.0,955.1 L448.0,951.4 L460.0,948.4 L472.0,946.2 L484.0,944.5 L496.0,943.4 L508.0,942.7 L520.0,942.2 L532.0,942.0 L544.0,941.9 L556.0,941.9 L568.0,942.0 L580.0,942.2 L592.0,942.5 L604.0,942.9 L616.0,943.5 L628.0,944.4 L640.0,945.7 L652.0,947.6 L664.0,950.0 L676.0,953.3 L688.0,957.5 L700.0,962.7 L712.0,968.9 L724.0,976.4 L736.0,985.1 L748.0,995.1 L760.0,1006.3 L772.0,1018.8 L784.0,1032.5 L796.0,1047.2 L808.0,1062.9 L820.0,1079.4 L832.0,1096.6 L844.0,1114.3 L856.0,1132.2 L868.0,1150.3 L880.0,1168.2 L892.0,1185.9 L904.0,1203.1 L916.0,1219.6 L928.0,1235.4 L940.0,1250.2 L952.0,1264.0 L964.0,1276.7 L976.0,1288.3 L988.0,1298.6 L1000.0,1307.8 L1012.0,1315.9 L1024.0,1322.9 L1036.0,1328.8 L1048.0,1333.8 L1060.0,1338.0 L1072.0,1341.5 L1084.0,1344.4 L1096.0,1346.8 " stroke-opacity="0.24" stroke-width="1.4"></path><path d="M-20.0,1379.6 L-8.0,1375.2 L4.0,1370.3 L16.0,1364.9 L28.0,1358.9 L40.0,1352.5 L52.0,1345.6 L64.0,1338.2 L76.0,1330.3 L88.0,1321.9 L100.0,1312.9 L112.0,1303.4 L124.0,1293.3 L136.0,1282.6 L148.0,1271.2 L160.0,1259.3 L172.0,1246.7 L184.0,1233.5 L196.0,1219.7 L208.0,1205.4 L220.0,1190.7 L232.0,1175.5 L244.0,1160.1 L256.0,1144.6 L268.0,1129.0 L280.0,1113.5 L292.0,1098.3 L304.0,1083.6 L316.0,1069.4 L328.0,1055.9 L340.0,1043.3 L352.0,1031.6 L364.0,1021.0 L376.0,1011.4 L388.0,1003.0 L400.0,995.8 L412.0,989.7 L424.0,984.6 L436.0,980.6 L448.0,977.5 L460.0,975.2 L472.0,973.5 L484.0,972.4 L496.0,971.7 L508.0,971.3 L520.0,971.1 L532.0,971.0 L544.0,970.8 L556.0,970.7 L568.0,970.4 L580.0,970.2 L592.0,969.9 L604.0,969.7 L616.0,969.7 L628.0,970.0 L640.0,970.7 L652.0,972.0 L664.0,974.0 L676.0,976.8 L688.0,980.7 L700.0,985.7 L712.0,992.0 L724.0,999.6 L736.0,1008.5 L748.0,1018.9 L760.0,1030.6 L772.0,1043.6 L784.0,1057.9 L796.0,1073.2 L808.0,1089.6 L820.0,1106.7 L832.0,1124.4 L844.0,1142.5 L856.0,1160.9 L868.0,1179.1 L880.0,1197.2 L892.0,1214.8 L904.0,1231.8 L916.0,1248.1 L928.0,1263.4 L940.0,1277.7 L952.0,1290.9 L964.0,1303.0 L976.0,1313.9 L988.0,1323.7 L1000.0,1332.3 L1012.0,1339.8 L1024.0,1346.4 L1036.0,1352.1 L1048.0,1356.9 L1060.0,1361.1 L1072.0,1364.7 L1084.0,1367.8 L1096.0,1370.5 " stroke-opacity="0.21" stroke-width="1.4"></path><path d="M-20.0,1402.7 L-8.0,1398.3 L4.0,1393.5 L16.0,1388.4 L28.0,1382.9 L40.0,1377.0 L52.0,1370.7 L64.0,1363.9 L76.0,1356.7 L88.0,1348.9 L100.0,1340.5 L112.0,1331.4 L124.0,1321.7 L136.0,1311.3 L148.0,1300.2 L160.0,1288.2 L172.0,1275.5 L184.0,1262.1 L196.0,1248.0 L208.0,1233.2 L220.0,1217.9 L232.0,1202.1 L244.0,1186.1 L256.0,1169.9 L268.0,1153.7 L280.0,1137.7 L292.0,1122.1 L304.0,1107.0 L316.0,1092.5 L328.0,1079.0 L340.0,1066.4 L352.0,1054.8 L364.0,1044.5 L376.0,1035.4 L388.0,1027.5 L400.0,1020.8 L412.0,1015.3 L424.0,1010.9 L436.0,1007.5 L448.0,1005.0 L460.0,1003.2 L472.0,1002.0 L484.0,1001.2 L496.0,1000.7 L508.0,1000.3 L520.0,1000.0 L532.0,999.6 L544.0,999.1 L556.0,998.5 L568.0,997.7 L580.0,996.9 L592.0,996.0 L604.0,995.1 L616.0,994.5 L628.0,994.2 L640.0,994.5 L652.0,995.4 L664.0,997.1 L676.0,999.9 L688.0,1003.8 L700.0,1008.9 L712.0,1015.5 L724.0,1023.5 L736.0,1032.9 L748.0,1043.9 L760.0,1056.2 L772.0,1069.9 L784.0,1084.8 L796.0,1100.7 L808.0,1117.6 L820.0,1135.1 L832.0,1153.2 L844.0,1171.5 L856.0,1189.8 L868.0,1208.0 L880.0,1225.9 L892.0,1243.1 L904.0,1259.7 L916.0,1275.4 L928.0,1290.1 L940.0,1303.8 L952.0,1316.4 L964.0,1327.9 L976.0,1338.2 L988.0,1347.5 L1000.0,1355.7 L1012.0,1363.0 L1024.0,1369.4 L1036.0,1375.1 L1048.0,1380.1 L1060.0,1384.6 L1072.0,1388.5 L1084.0,1392.1 L1096.0,1395.4 " stroke-opacity="0.18" stroke-width="1.4"></path><path d="M-20.0,1426.0 L-8.0,1422.0 L4.0,1417.7 L16.0,1413.1 L28.0,1408.2 L40.0,1402.9 L52.0,1397.3 L64.0,1391.1 L76.0,1384.4 L88.0,1377.1 L100.0,1369.1 L112.0,1360.3 L124.0,1350.7 L136.0,1340.3 L148.0,1328.9 L160.0,1316.7 L172.0,1303.6 L184.0,1289.7 L196.0,1275.0 L208.0,1259.6 L220.0,1243.7 L232.0,1227.3 L244.0,1210.7 L256.0,1194.0 L268.0,1177.3 L280.0,1161.0 L292.0,1145.2 L304.0,1130.0 L316.0,1115.6 L328.0,1102.3 L340.0,1090.0 L352.0,1079.0 L364.0,1069.1 L376.0,1060.6 L388.0,1053.4 L400.0,1047.3 L412.0,1042.5 L424.0,1038.6 L436.0,1035.7 L448.0,1033.5 L460.0,1032.0 L472.0,1030.9 L484.0,1030.1 L496.0,1029.5 L508.0,1028.8 L520.0,1028.1 L532.0,1027.3 L544.0,1026.2 L556.0,1025.0 L568.0,1023.6 L580.0,1022.1 L592.0,1020.6 L604.0,1019.2 L616.0,1018.2 L628.0,1017.5 L640.0,1017.6 L652.0,1018.4 L664.0,1020.2 L676.0,1023.2 L688.0,1027.4 L700.0,1033.0 L712.0,1040.1 L724.0,1048.7 L736.0,1058.8 L748.0,1070.3 L760.0,1083.3 L772.0,1097.5 L784.0,1112.9 L796.0,1129.2 L808.0,1146.4 L820.0,1164.1 L832.0,1182.1 L844.0,1200.3 L856.0,1218.4 L868.0,1236.2 L880.0,1253.6 L892.0,1270.3 L904.0,1286.2 L916.0,1301.3 L928.0,1315.4 L940.0,1328.5 L952.0,1340.5 L964.0,1351.5 L976.0,1361.5 L988.0,1370.6 L1000.0,1378.7 L1012.0,1386.1 L1024.0,1392.7 L1036.0,1398.7 L1048.0,1404.1 L1060.0,1409.1 L1072.0,1413.7 L1084.0,1417.9 L1096.0,1421.8 " stroke-opacity="0.15" stroke-width="1.4"></path><path d="M-20.0,1450.3 L-8.0,1446.9 L4.0,1443.2 L16.0,1439.2 L28.0,1435.0 L40.0,1430.3 L52.0,1425.2 L64.0,1419.4 L76.0,1413.1 L88.0,1406.0 L100.0,1398.0 L112.0,1389.2 L124.0,1379.4 L136.0,1368.7 L148.0,1356.9 L160.0,1344.2 L172.0,1330.5 L184.0,1315.9 L196.0,1300.6 L208.0,1284.6 L220.0,1268.1 L232.0,1251.2 L244.0,1234.2 L256.0,1217.2 L268.0,1200.4 L280.0,1184.1 L292.0,1168.3 L304.0,1153.4 L316.0,1139.4 L328.0,1126.5 L340.0,1114.8 L352.0,1104.4 L364.0,1095.2 L376.0,1087.3 L388.0,1080.7 L400.0,1075.2 L412.0,1070.8 L424.0,1067.3 L436.0,1064.6 L448.0,1062.5 L460.0,1060.9 L472.0,1059.7 L484.0,1058.5 L496.0,1057.5 L508.0,1056.3 L520.0,1055.0 L532.0,1053.6 L544.0,1051.9 L556.0,1050.0 L568.0,1048.0 L580.0,1046.0 L592.0,1044.1 L604.0,1042.5 L616.0,1041.2 L628.0,1040.6 L640.0,1040.7 L652.0,1041.8 L664.0,1044.0 L676.0,1047.4 L688.0,1052.2 L700.0,1058.4 L712.0,1066.1 L724.0,1075.3 L736.0,1086.0 L748.0,1098.1 L760.0,1111.5 L772.0,1126.1 L784.0,1141.7 L796.0,1158.2 L808.0,1175.3 L820.0,1192.8 L832.0,1210.6 L844.0,1228.3 L856.0,1245.9 L868.0,1263.2 L880.0,1279.9 L892.0,1296.0 L904.0,1311.3 L916.0,1325.8 L928.0,1339.4 L940.0,1352.0 L952.0,1363.8 L964.0,1374.6 L976.0,1384.6 L988.0,1393.7 L1000.0,1402.1 L1012.0,1409.8 L1024.0,1416.9 L1036.0,1423.4 L1048.0,1429.4 L1060.0,1435.0 L1072.0,1440.2 L1084.0,1445.1 L1096.0,1449.6 " stroke-opacity="0.12" stroke-width="1.4"></path><path d="M-20.0,1476.0 L-8.0,1473.2 L4.0,1470.1 L16.0,1466.8 L28.0,1463.0 L40.0,1458.8 L52.0,1453.9 L64.0,1448.4 L76.0,1442.0 L88.0,1434.8 L100.0,1426.7 L112.0,1417.5 L124.0,1407.2 L136.0,1395.9 L148.0,1383.6 L160.0,1370.2 L172.0,1355.9 L184.0,1340.7 L196.0,1324.8 L208.0,1308.3 L220.0,1291.5 L232.0,1274.3 L244.0,1257.2 L256.0,1240.2 L268.0,1223.6 L280.0,1207.6 L292.0,1192.3 L304.0,1177.8 L316.0,1164.4 L328.0,1152.2 L340.0,1141.1 L352.0,1131.3 L364.0,1122.7 L376.0,1115.3 L388.0,1109.1 L400.0,1103.9 L412.0,1099.7 L424.0,1096.2 L436.0,1093.5 L448.0,1091.2 L460.0,1089.2 L472.0,1087.5 L484.0,1085.9 L496.0,1084.2 L508.0,1082.4 L520.0,1080.5 L532.0,1078.4 L544.0,1076.1 L556.0,1073.8 L568.0,1071.4 L580.0,1069.2 L592.0,1067.1 L604.0,1065.5 L616.0,1064.4 L628.0,1064.1 L640.0,1064.6 L652.0,1066.2 L664.0,1068.9 L676.0,1073.0 L688.0,1078.4 L700.0,1085.2 L712.0,1093.5 L724.0,1103.3 L736.0,1114.4 L748.0,1126.8 L760.0,1140.4 L772.0,1155.1 L784.0,1170.6 L796.0,1186.9 L808.0,1203.6 L820.0,1220.7 L832.0,1237.9 L844.0,1255.1 L856.0,1272.1 L868.0,1288.7 L880.0,1304.8 L892.0,1320.3 L904.0,1335.1 L916.0,1349.2 L928.0,1362.5 L940.0,1375.1 L952.0,1386.8 L964.0,1397.8 L976.0,1408.0 L988.0,1417.6 L1000.0,1426.4 L1012.0,1434.7 L1024.0,1442.4 L1036.0,1449.6 L1048.0,1456.2 L1060.0,1462.4 L1072.0,1468.2 L1084.0,1473.4 L1096.0,1478.3 " stroke-opacity="0.10" stroke-width="1.4"></path></g>
<g><path d="M225.0,699.4 L380.0,518.0 L540.0,484.7 L700.0,492.4 L855.0,680.8 " fill="none" stroke="#d29a63" stroke-width="1.4" stroke-opacity=".55" stroke-dasharray="2 8" stroke-linecap="round"></path><circle cx="380.0" cy="518.0" r="14" fill="#45A6DC" opacity=".16"></circle><circle cx="380.0" cy="518.0" r="4.5" fill="#d29a63"></circle><circle cx="700.0" cy="492.4" r="14" fill="#45A6DC" opacity=".16"></circle><circle cx="700.0" cy="492.4" r="4.5" fill="#d29a63"></circle><circle cx="540.0" cy="484.7" r="9" fill="#45A6DC" opacity=".16"></circle><circle cx="540.0" cy="484.7" r="3" fill="#9fd0ec"></circle><circle cx="225.0" cy="699.4" r="9" fill="#45A6DC" opacity=".16"></circle><circle cx="225.0" cy="699.4" r="3" fill="#9fd0ec"></circle><circle cx="855.0" cy="680.8" r="9" fill="#45A6DC" opacity=".16"></circle><circle cx="855.0" cy="680.8" r="3" fill="#9fd0ec"></circle></g>

<g transform="translate(440,150)">
  <path d="M18,140 L70,18 L122,140" fill="none" stroke="#45A6DC" stroke-width="30" stroke-linejoin="miter" stroke-linecap="butt"></path>
  <path d="M78,140 L130,18 L182,140" fill="none" stroke="#2D6FA0" stroke-width="30" stroke-linejoin="miter" stroke-linecap="butt"></path>
</g>
<text x="540" y="392" text-anchor="middle" font-family="Arial,Helvetica,sans-serif" font-weight="900" font-size="78" letter-spacing="1" fill="#ffffff">MARA</text>
<text x="540" y="432" text-anchor="middle" font-family="Arial,Helvetica,sans-serif" font-weight="700" font-size="21" letter-spacing="5" fill="#dce8f2">AGUA RICA – ALUMBRERA</text>
<text x="540" y="462" text-anchor="middle" font-family="Arial,Helvetica,sans-serif" font-weight="700" font-size="14.5" letter-spacing="6" fill="#6fb6e0">CATAMARCA  |  ARGENTINA</text>

<rect width="1080" height="1280" filter="url(#grain)" opacity=".55"></rect>
</svg>