<svg xmlns="http://www.w3.org/2000/svg" width="1400" height="320" viewBox="0 0 1400 320">
<defs>
  <linearGradient id="ln" x1="0" y1="0" x2="1" y2="0">
    <stop offset="0" stop-color="#3d7edc" stop-opacity="0"></stop>
    <stop offset=".25" stop-color="#5b9bf0"></stop>
    <stop offset=".75" stop-color="#3d7edc"></stop>
    <stop offset="1" stop-color="#3d7edc" stop-opacity="0"></stop>
  </linearGradient>
  <radialGradient id="gl" cx="55%" cy="78%" r="55%">
    <stop offset="0" stop-color="#3d7edc" stop-opacity=".22"></stop>
    <stop offset="1" stop-color="#3d7edc" stop-opacity="0"></stop>
  </radialGradient>
  <linearGradient id="fade" x1="0" y1="0" x2="0" y2="1">
    <stop offset="0" stop-color="#000" stop-opacity="0"></stop>
    <stop offset=".7" stop-color="#000" stop-opacity="0"></stop>
    <stop offset="1" stop-color="#000" stop-opacity="1"></stop>
  </linearGradient>
  <mask id="m"><rect width="1400" height="320" fill="url(#fade)"></rect><rect width="1400" height="320" fill="#fff" opacity=".0"></rect></mask>
</defs>
<rect width="1400" height="320" fill="url(#gl)"></rect>
<g fill="none" stroke="url(#ln)"><path d="M-20.0,174.0 L-8.0,172.5 L4.0,170.7 L16.0,168.6 L28.0,166.1 L40.0,163.2 L52.0,159.8 L64.0,155.9 L76.0,151.4 L88.0,146.5 L100.0,141.1 L112.0,135.3 L124.0,129.1 L136.0,122.7 L148.0,116.2 L160.0,109.6 L172.0,103.2 L184.0,96.9 L196.0,91.0 L208.0,85.6 L220.0,80.7 L232.0,76.5 L244.0,73.0 L256.0,70.2 L268.0,68.3 L280.0,67.2 L292.0,66.8 L304.0,67.2 L316.0,68.2 L328.0,69.8 L340.0,72.0 L352.0,74.5 L364.0,77.2 L376.0,80.1 L388.0,83.1 L400.0,86.0 L412.0,88.8 L424.0,91.3 L436.0,93.6 L448.0,95.4 L460.0,96.8 L472.0,97.8 L484.0,98.3 L496.0,98.3 L508.0,97.8 L520.0,96.9 L532.0,95.5 L544.0,93.7 L556.0,91.5 L568.0,88.9 L580.0,86.0 L592.0,82.8 L604.0,79.4 L616.0,75.8 L628.0,72.0 L640.0,68.1 L652.0,64.1 L664.0,60.1 L676.0,56.2 L688.0,52.4 L700.0,48.8 L712.0,45.5 L724.0,42.5 L736.0,39.9 L748.0,37.7 L760.0,36.1 L772.0,35.1 L784.0,34.7 L796.0,34.9 L808.0,35.7 L820.0,37.2 L832.0,39.3 L844.0,41.9 L856.0,45.1 L868.0,48.6 L880.0,52.5 L892.0,56.6 L904.0,60.8 L916.0,64.9 L928.0,69.0 L940.0,72.8 L952.0,76.2 L964.0,79.2 L976.0,81.8 L988.0,83.8 L1000.0,85.2 L1012.0,86.1 L1024.0,86.4 L1036.0,86.3 L1048.0,85.7 L1060.0,84.9 L1072.0,83.8 L1084.0,82.7 L1096.0,81.6 L1108.0,80.6 L1120.0,79.9 L1132.0,79.7 L1144.0,79.8 L1156.0,80.6 L1168.0,81.9 L1180.0,83.9 L1192.0,86.6 L1204.0,89.8 L1216.0,93.7 L1228.0,98.0 L1240.0,102.8 L1252.0,108.0 L1264.0,113.3 L1276.0,118.9 L1288.0,124.4 L1300.0,129.9 L1312.0,135.2 L1324.0,140.2 L1336.0,144.9 L1348.0,149.3 L1360.0,153.2 L1372.0,156.8 L1384.0,159.9 L1396.0,162.7 L1408.0,165.2 L1420.0,167.3 " stroke-opacity="0.300" stroke-width="1.2"></path><path d="M-20.0,191.9 L-8.0,190.4 L4.0,188.6 L16.0,186.3 L28.0,183.5 L40.0,180.2 L52.0,176.3 L64.0,171.9 L76.0,167.0 L88.0,161.7 L100.0,155.9 L112.0,149.7 L124.0,143.3 L136.0,136.8 L148.0,130.2 L160.0,123.8 L172.0,117.5 L184.0,111.5 L196.0,106.0 L208.0,101.0 L220.0,96.6 L232.0,92.8 L244.0,89.8 L256.0,87.5 L268.0,85.9 L280.0,85.0 L292.0,84.8 L304.0,85.2 L316.0,86.1 L328.0,87.6 L340.0,89.4 L352.0,91.5 L364.0,93.9 L376.0,96.3 L388.0,98.8 L400.0,101.3 L412.0,103.6 L424.0,105.8 L436.0,107.8 L448.0,109.5 L460.0,110.8 L472.0,111.9 L484.0,112.5 L496.0,112.8 L508.0,112.7 L520.0,112.2 L532.0,111.3 L544.0,110.0 L556.0,108.2 L568.0,106.1 L580.0,103.5 L592.0,100.6 L604.0,97.3 L616.0,93.8 L628.0,89.9 L640.0,85.8 L652.0,81.6 L664.0,77.2 L676.0,72.9 L688.0,68.6 L700.0,64.6 L712.0,60.8 L724.0,57.3 L736.0,54.4 L748.0,52.0 L760.0,50.2 L772.0,49.1 L784.0,48.7 L796.0,49.1 L808.0,50.2 L820.0,52.0 L832.0,54.6 L844.0,57.7 L856.0,61.3 L868.0,65.3 L880.0,69.6 L892.0,74.0 L904.0,78.5 L916.0,82.8 L928.0,87.0 L940.0,90.7 L952.0,94.0 L964.0,96.8 L976.0,99.0 L988.0,100.6 L1000.0,101.5 L1012.0,101.9 L1024.0,101.8 L1036.0,101.2 L1048.0,100.3 L1060.0,99.2 L1072.0,97.9 L1084.0,96.7 L1096.0,95.6 L1108.0,94.8 L1120.0,94.4 L1132.0,94.4 L1144.0,95.0 L1156.0,96.2 L1168.0,98.0 L1180.0,100.5 L1192.0,103.6 L1204.0,107.2 L1216.0,111.3 L1228.0,115.9 L1240.0,120.8 L1252.0,125.9 L1264.0,131.2 L1276.0,136.5 L1288.0,141.7 L1300.0,146.7 L1312.0,151.6 L1324.0,156.1 L1336.0,160.4 L1348.0,164.3 L1360.0,167.9 L1372.0,171.1 L1384.0,174.1 L1396.0,176.7 L1408.0,179.2 L1420.0,181.5 " stroke-opacity="0.286" stroke-width="1.2"></path><path d="M-20.0,209.8 L-8.0,208.1 L4.0,205.9 L16.0,203.2 L28.0,200.0 L40.0,196.2 L52.0,191.9 L64.0,187.1 L76.0,181.8 L88.0,176.1 L100.0,170.0 L112.0,163.8 L124.0,157.4 L136.0,150.9 L148.0,144.6 L160.0,138.4 L172.0,132.5 L184.0,127.0 L196.0,121.9 L208.0,117.4 L220.0,113.4 L232.0,110.1 L244.0,107.3 L256.0,105.3 L268.0,103.8 L280.0,102.9 L292.0,102.6 L304.0,102.9 L316.0,103.5 L328.0,104.6 L340.0,106.0 L352.0,107.6 L364.0,109.5 L376.0,111.5 L388.0,113.6 L400.0,115.7 L412.0,117.8 L424.0,119.9 L436.0,121.8 L448.0,123.6 L460.0,125.1 L472.0,126.4 L484.0,127.5 L496.0,128.2 L508.0,128.6 L520.0,128.5 L532.0,128.1 L544.0,127.1 L556.0,125.7 L568.0,123.8 L580.0,121.5 L592.0,118.6 L604.0,115.2 L616.0,111.5 L628.0,107.3 L640.0,102.9 L652.0,98.2 L664.0,93.4 L676.0,88.6 L688.0,83.9 L700.0,79.4 L712.0,75.3 L724.0,71.6 L736.0,68.5 L748.0,66.0 L760.0,64.3 L772.0,63.3 L784.0,63.2 L796.0,64.0 L808.0,65.5 L820.0,67.8 L832.0,70.8 L844.0,74.3 L856.0,78.4 L868.0,82.8 L880.0,87.3 L892.0,91.9 L904.0,96.5 L916.0,100.8 L928.0,104.7 L940.0,108.2 L952.0,111.2 L964.0,113.5 L976.0,115.3 L988.0,116.4 L1000.0,116.9 L1012.0,116.9 L1024.0,116.4 L1036.0,115.5 L1048.0,114.4 L1060.0,113.2 L1072.0,112.0 L1084.0,110.9 L1096.0,110.1 L1108.0,109.6 L1120.0,109.6 L1132.0,110.1 L1144.0,111.1 L1156.0,112.8 L1168.0,115.1 L1180.0,117.9 L1192.0,121.3 L1204.0,125.1 L1216.0,129.3 L1228.0,133.8 L1240.0,138.6 L1252.0,143.5 L1264.0,148.4 L1276.0,153.3 L1288.0,158.0 L1300.0,162.6 L1312.0,167.0 L1324.0,171.1 L1336.0,175.0 L1348.0,178.6 L1360.0,182.0 L1372.0,185.2 L1384.0,188.1 L1396.0,190.9 L1408.0,193.6 L1420.0,196.2 " stroke-opacity="0.272" stroke-width="1.2"></path><path d="M-20.0,227.1 L-8.0,225.0 L4.0,222.4 L16.0,219.2 L28.0,215.5 L40.0,211.3 L52.0,206.6 L64.0,201.4 L76.0,195.9 L88.0,190.1 L100.0,184.1 L112.0,177.9 L124.0,171.7 L136.0,165.6 L148.0,159.6 L160.0,153.9 L172.0,148.4 L184.0,143.4 L196.0,138.8 L208.0,134.6 L220.0,131.0 L232.0,127.9 L244.0,125.3 L256.0,123.2 L268.0,121.7 L280.0,120.6 L292.0,120.0 L304.0,119.8 L316.0,120.1 L328.0,120.7 L340.0,121.6 L352.0,122.8 L364.0,124.3 L376.0,125.9 L388.0,127.8 L400.0,129.8 L412.0,131.9 L424.0,134.0 L436.0,136.1 L448.0,138.2 L460.0,140.1 L472.0,141.8 L484.0,143.4 L496.0,144.5 L508.0,145.4 L520.0,145.7 L532.0,145.6 L544.0,144.9 L556.0,143.7 L568.0,141.8 L580.0,139.4 L592.0,136.3 L604.0,132.7 L616.0,128.5 L628.0,124.0 L640.0,119.1 L652.0,113.9 L664.0,108.7 L676.0,103.5 L688.0,98.4 L700.0,93.7 L712.0,89.3 L724.0,85.6 L736.0,82.6 L748.0,80.3 L760.0,78.8 L772.0,78.2 L784.0,78.6 L796.0,79.8 L808.0,81.8 L820.0,84.5 L832.0,87.9 L844.0,91.8 L856.0,96.1 L868.0,100.7 L880.0,105.3 L892.0,109.9 L904.0,114.2 L916.0,118.3 L928.0,121.9 L940.0,124.9 L952.0,127.4 L964.0,129.3 L976.0,130.6 L988.0,131.3 L1000.0,131.4 L1012.0,131.1 L1024.0,130.5 L1036.0,129.6 L1048.0,128.5 L1060.0,127.4 L1072.0,126.5 L1084.0,125.7 L1096.0,125.3 L1108.0,125.3 L1120.0,125.8 L1132.0,126.7 L1144.0,128.2 L1156.0,130.2 L1168.0,132.8 L1180.0,135.8 L1192.0,139.2 L1204.0,143.0 L1216.0,147.1 L1228.0,151.4 L1240.0,155.8 L1252.0,160.3 L1264.0,164.7 L1276.0,169.2 L1288.0,173.5 L1300.0,177.6 L1312.0,181.6 L1324.0,185.5 L1336.0,189.1 L1348.0,192.7 L1360.0,196.1 L1372.0,199.3 L1384.0,202.5 L1396.0,205.7 L1408.0,208.8 L1420.0,211.8 " stroke-opacity="0.258" stroke-width="1.2"></path><path d="M-20.0,243.5 L-8.0,241.0 L4.0,237.9 L16.0,234.3 L28.0,230.2 L40.0,225.6 L52.0,220.7 L64.0,215.5 L76.0,210.0 L88.0,204.3 L100.0,198.4 L112.0,192.6 L124.0,186.8 L136.0,181.1 L148.0,175.6 L160.0,170.3 L172.0,165.4 L184.0,160.7 L196.0,156.4 L208.0,152.5 L220.0,149.0 L232.0,145.9 L244.0,143.2 L256.0,140.9 L268.0,139.0 L280.0,137.6 L292.0,136.5 L304.0,135.9 L316.0,135.7 L328.0,135.8 L340.0,136.3 L352.0,137.2 L364.0,138.4 L376.0,140.0 L388.0,141.8 L400.0,143.9 L412.0,146.2 L424.0,148.6 L436.0,151.1 L448.0,153.6 L460.0,156.0 L472.0,158.2 L484.0,160.2 L496.0,161.8 L508.0,162.9 L520.0,163.5 L532.0,163.5 L544.0,162.9 L556.0,161.6 L568.0,159.5 L580.0,156.8 L592.0,153.3 L604.0,149.3 L616.0,144.7 L628.0,139.6 L640.0,134.3 L652.0,128.7 L664.0,123.1 L676.0,117.7 L688.0,112.5 L700.0,107.7 L712.0,103.4 L724.0,99.9 L736.0,97.1 L748.0,95.2 L760.0,94.2 L772.0,94.1 L784.0,94.9 L796.0,96.5 L808.0,98.9 L820.0,102.0 L832.0,105.7 L844.0,109.8 L856.0,114.1 L868.0,118.6 L880.0,123.0 L892.0,127.3 L904.0,131.3 L916.0,134.9 L928.0,138.1 L940.0,140.7 L952.0,142.7 L964.0,144.2 L976.0,145.1 L988.0,145.5 L1000.0,145.5 L1012.0,145.2 L1024.0,144.5 L1036.0,143.8 L1048.0,143.0 L1060.0,142.3 L1072.0,141.8 L1084.0,141.5 L1096.0,141.5 L1108.0,142.0 L1120.0,142.9 L1132.0,144.2 L1144.0,145.9 L1156.0,148.1 L1168.0,150.8 L1180.0,153.7 L1192.0,157.0 L1204.0,160.5 L1216.0,164.3 L1228.0,168.1 L1240.0,172.1 L1252.0,176.1 L1264.0,180.1 L1276.0,184.1 L1288.0,188.0 L1300.0,191.9 L1312.0,195.7 L1324.0,199.5 L1336.0,203.2 L1348.0,206.9 L1360.0,210.5 L1372.0,214.1 L1384.0,217.7 L1396.0,221.3 L1408.0,224.9 L1420.0,228.4 " stroke-opacity="0.244" stroke-width="1.2"></path><path d="M-20.0,259.0 L-8.0,256.0 L4.0,252.5 L16.0,248.6 L28.0,244.3 L40.0,239.7 L52.0,234.8 L64.0,229.6 L76.0,224.4 L88.0,219.0 L100.0,213.6 L112.0,208.2 L124.0,202.8 L136.0,197.6 L148.0,192.6 L160.0,187.7 L172.0,183.0 L184.0,178.6 L196.0,174.4 L208.0,170.4 L220.0,166.8 L232.0,163.5 L244.0,160.5 L256.0,157.8 L268.0,155.5 L280.0,153.6 L292.0,152.1 L304.0,151.0 L316.0,150.4 L328.0,150.2 L340.0,150.5 L352.0,151.2 L364.0,152.5 L376.0,154.1 L388.0,156.2 L400.0,158.6 L412.0,161.2 L424.0,164.1 L436.0,167.1 L448.0,170.0 L460.0,172.9 L472.0,175.5 L484.0,177.8 L496.0,179.6 L508.0,180.9 L520.0,181.5 L532.0,181.4 L544.0,180.6 L556.0,178.9 L568.0,176.5 L580.0,173.3 L592.0,169.4 L604.0,164.9 L616.0,159.9 L628.0,154.4 L640.0,148.7 L652.0,142.9 L664.0,137.2 L676.0,131.7 L688.0,126.6 L700.0,122.0 L712.0,118.0 L724.0,114.9 L736.0,112.5 L748.0,111.1 L760.0,110.5 L772.0,110.9 L784.0,112.1 L796.0,114.0 L808.0,116.7 L820.0,120.0 L832.0,123.7 L844.0,127.7 L856.0,131.8 L868.0,136.0 L880.0,140.1 L892.0,144.0 L904.0,147.5 L916.0,150.7 L928.0,153.3 L940.0,155.5 L952.0,157.2 L964.0,158.4 L976.0,159.2 L988.0,159.5 L1000.0,159.6 L1012.0,159.4 L1024.0,159.1 L1036.0,158.7 L1048.0,158.3 L1060.0,158.1 L1072.0,158.0 L1084.0,158.2 L1096.0,158.7 L1108.0,159.5 L1120.0,160.6 L1132.0,162.1 L1144.0,163.9 L1156.0,166.1 L1168.0,168.5 L1180.0,171.2 L1192.0,174.1 L1204.0,177.3 L1216.0,180.5 L1228.0,183.9 L1240.0,187.4 L1252.0,191.0 L1264.0,194.7 L1276.0,198.4 L1288.0,202.1 L1300.0,205.9 L1312.0,209.8 L1324.0,213.7 L1336.0,217.7 L1348.0,221.7 L1360.0,225.7 L1372.0,229.8 L1384.0,233.9 L1396.0,238.0 L1408.0,242.0 L1420.0,245.8 " stroke-opacity="0.230" stroke-width="1.2"></path><path d="M-20.0,273.6 L-8.0,270.3 L4.0,266.6 L16.0,262.6 L28.0,258.4 L40.0,253.9 L52.0,249.2 L64.0,244.4 L76.0,239.5 L88.0,234.6 L100.0,229.6 L112.0,224.7 L124.0,219.8 L136.0,215.0 L148.0,210.2 L160.0,205.5 L172.0,201.0 L184.0,196.5 L196.0,192.2 L208.0,188.1 L220.0,184.1 L232.0,180.4 L244.0,176.9 L256.0,173.8 L268.0,171.0 L280.0,168.6 L292.0,166.7 L304.0,165.3 L316.0,164.5 L328.0,164.2 L340.0,164.5 L352.0,165.4 L364.0,166.8 L376.0,168.8 L388.0,171.3 L400.0,174.1 L412.0,177.2 L424.0,180.6 L436.0,184.0 L448.0,187.3 L460.0,190.5 L472.0,193.3 L484.0,195.7 L496.0,197.6 L508.0,198.7 L520.0,199.2 L532.0,198.8 L544.0,197.5 L556.0,195.5 L568.0,192.6 L580.0,188.9 L592.0,184.6 L604.0,179.6 L616.0,174.3 L628.0,168.6 L640.0,162.8 L652.0,156.9 L664.0,151.3 L676.0,146.0 L688.0,141.2 L700.0,137.0 L712.0,133.5 L724.0,130.8 L736.0,128.9 L748.0,127.9 L760.0,127.7 L772.0,128.4 L784.0,129.9 L796.0,132.0 L808.0,134.7 L820.0,137.9 L832.0,141.4 L844.0,145.1 L856.0,148.9 L868.0,152.6 L880.0,156.2 L892.0,159.6 L904.0,162.7 L916.0,165.5 L928.0,167.8 L940.0,169.7 L952.0,171.3 L964.0,172.4 L976.0,173.3 L988.0,173.8 L1000.0,174.2 L1012.0,174.3 L1024.0,174.4 L1036.0,174.5 L1048.0,174.6 L1060.0,174.8 L1072.0,175.2 L1084.0,175.7 L1096.0,176.4 L1108.0,177.4 L1120.0,178.6 L1132.0,180.0 L1144.0,181.7 L1156.0,183.5 L1168.0,185.6 L1180.0,187.9 L1192.0,190.4 L1204.0,193.0 L1216.0,195.8 L1228.0,198.8 L1240.0,202.0 L1252.0,205.3 L1264.0,208.7 L1276.0,212.4 L1288.0,216.2 L1300.0,220.2 L1312.0,224.3 L1324.0,228.6 L1336.0,232.9 L1348.0,237.4 L1360.0,242.0 L1372.0,246.5 L1384.0,251.0 L1396.0,255.4 L1408.0,259.7 L1420.0,263.7 " stroke-opacity="0.216" stroke-width="1.2"></path><path d="M-20.0,287.7 L-8.0,284.3 L4.0,280.7 L16.0,276.8 L28.0,272.8 L40.0,268.6 L52.0,264.4 L64.0,260.0 L76.0,255.6 L88.0,251.2 L100.0,246.6 L112.0,242.1 L124.0,237.5 L136.0,232.9 L148.0,228.2 L160.0,223.5 L172.0,218.8 L184.0,214.1 L196.0,209.5 L208.0,204.9 L220.0,200.5 L232.0,196.3 L244.0,192.4 L256.0,188.8 L268.0,185.6 L280.0,183.0 L292.0,180.9 L304.0,179.4 L316.0,178.5 L328.0,178.4 L340.0,178.9 L352.0,180.1 L364.0,182.0 L376.0,184.4 L388.0,187.3 L400.0,190.6 L412.0,194.2 L424.0,197.9 L436.0,201.6 L448.0,205.2 L460.0,208.5 L472.0,211.3 L484.0,213.6 L496.0,215.2 L508.0,216.1 L520.0,216.1 L532.0,215.3 L544.0,213.6 L556.0,211.0 L568.0,207.7 L580.0,203.6 L592.0,198.9 L604.0,193.8 L616.0,188.3 L628.0,182.6 L640.0,176.9 L652.0,171.3 L664.0,166.0 L676.0,161.1 L688.0,156.7 L700.0,152.9 L712.0,149.9 L724.0,147.6 L736.0,146.2 L748.0,145.5 L760.0,145.6 L772.0,146.4 L784.0,147.8 L796.0,149.9 L808.0,152.4 L820.0,155.2 L832.0,158.4 L844.0,161.6 L856.0,165.0 L868.0,168.3 L880.0,171.4 L892.0,174.4 L904.0,177.2 L916.0,179.6 L928.0,181.8 L940.0,183.8 L952.0,185.4 L964.0,186.7 L976.0,187.9 L988.0,188.8 L1000.0,189.6 L1012.0,190.2 L1024.0,190.8 L1036.0,191.3 L1048.0,191.8 L1060.0,192.4 L1072.0,193.0 L1084.0,193.7 L1096.0,194.4 L1108.0,195.3 L1120.0,196.3 L1132.0,197.5 L1144.0,198.7 L1156.0,200.2 L1168.0,201.8 L1180.0,203.6 L1192.0,205.6 L1204.0,207.9 L1216.0,210.3 L1228.0,213.0 L1240.0,216.0 L1252.0,219.3 L1264.0,222.8 L1276.0,226.6 L1288.0,230.7 L1300.0,235.1 L1312.0,239.6 L1324.0,244.3 L1336.0,249.2 L1348.0,254.1 L1360.0,259.1 L1372.0,264.0 L1384.0,268.8 L1396.0,273.3 L1408.0,277.7 L1420.0,281.7 " stroke-opacity="0.202" stroke-width="1.2"></path><path d="M-20.0,301.8 L-8.0,298.5 L4.0,295.1 L16.0,291.6 L28.0,288.0 L40.0,284.3 L52.0,280.5 L64.0,276.7 L76.0,272.7 L88.0,268.6 L100.0,264.4 L112.0,260.0 L124.0,255.5 L136.0,250.8 L148.0,246.0 L160.0,241.0 L172.0,236.0 L184.0,230.9 L196.0,225.8 L208.0,220.8 L220.0,215.9 L232.0,211.3 L244.0,207.0 L256.0,203.1 L268.0,199.8 L280.0,197.0 L292.0,194.9 L304.0,193.6 L316.0,193.0 L328.0,193.1 L340.0,194.1 L352.0,195.7 L364.0,198.0 L376.0,200.9 L388.0,204.3 L400.0,207.9 L412.0,211.8 L424.0,215.8 L436.0,219.6 L448.0,223.1 L460.0,226.3 L472.0,228.9 L484.0,230.9 L496.0,232.1 L508.0,232.5 L520.0,232.1 L532.0,230.8 L544.0,228.6 L556.0,225.7 L568.0,222.0 L580.0,217.8 L592.0,213.0 L604.0,207.8 L616.0,202.4 L628.0,197.0 L640.0,191.6 L652.0,186.4 L664.0,181.5 L676.0,177.0 L688.0,173.1 L700.0,169.8 L712.0,167.2 L724.0,165.2 L736.0,164.0 L748.0,163.4 L760.0,163.5 L772.0,164.2 L784.0,165.5 L796.0,167.2 L808.0,169.3 L820.0,171.8 L832.0,174.4 L844.0,177.2 L856.0,180.1 L868.0,183.0 L880.0,185.8 L892.0,188.6 L904.0,191.2 L916.0,193.7 L928.0,196.0 L940.0,198.1 L952.0,200.0 L964.0,201.7 L976.0,203.3 L988.0,204.7 L1000.0,205.9 L1012.0,207.0 L1024.0,208.0 L1036.0,208.9 L1048.0,209.6 L1060.0,210.3 L1072.0,210.9 L1084.0,211.5 L1096.0,212.1 L1108.0,212.7 L1120.0,213.4 L1132.0,214.1 L1144.0,214.9 L1156.0,215.9 L1168.0,217.0 L1180.0,218.4 L1192.0,220.1 L1204.0,222.1 L1216.0,224.4 L1228.0,227.1 L1240.0,230.1 L1252.0,233.6 L1264.0,237.4 L1276.0,241.6 L1288.0,246.1 L1300.0,250.9 L1312.0,255.9 L1324.0,261.1 L1336.0,266.3 L1348.0,271.6 L1360.0,276.8 L1372.0,281.9 L1384.0,286.7 L1396.0,291.3 L1408.0,295.4 L1420.0,299.1 " stroke-opacity="0.188" stroke-width="1.2"></path><path d="M-20.0,316.3 L-8.0,313.4 L4.0,310.4 L16.0,307.4 L28.0,304.2 L40.0,301.0 L52.0,297.6 L64.0,294.1 L76.0,290.4 L88.0,286.5 L100.0,282.3 L112.0,277.9 L124.0,273.3 L136.0,268.3 L148.0,263.2 L160.0,257.8 L172.0,252.3 L184.0,246.8 L196.0,241.2 L208.0,235.7 L220.0,230.5 L232.0,225.6 L244.0,221.1 L256.0,217.1 L268.0,213.8 L280.0,211.2 L292.0,209.4 L304.0,208.3 L316.0,208.1 L328.0,208.8 L340.0,210.2 L352.0,212.3 L364.0,215.0 L376.0,218.3 L388.0,221.9 L400.0,225.8 L412.0,229.8 L424.0,233.7 L436.0,237.4 L448.0,240.7 L460.0,243.5 L472.0,245.8 L484.0,247.3 L496.0,248.0 L508.0,248.0 L520.0,247.1 L532.0,245.4 L544.0,243.0 L556.0,239.8 L568.0,236.1 L580.0,231.8 L592.0,227.1 L604.0,222.2 L616.0,217.2 L628.0,212.1 L640.0,207.1 L652.0,202.4 L664.0,198.0 L676.0,194.0 L688.0,190.4 L700.0,187.5 L712.0,185.0 L724.0,183.2 L736.0,182.0 L748.0,181.3 L760.0,181.2 L772.0,181.6 L784.0,182.4 L796.0,183.7 L808.0,185.4 L820.0,187.3 L832.0,189.5 L844.0,191.9 L856.0,194.5 L868.0,197.2 L880.0,199.9 L892.0,202.6 L904.0,205.3 L916.0,208.0 L928.0,210.6 L940.0,213.1 L952.0,215.5 L964.0,217.7 L976.0,219.7 L988.0,221.5 L1000.0,223.2 L1012.0,224.6 L1024.0,225.8 L1036.0,226.8 L1048.0,227.6 L1060.0,228.2 L1072.0,228.6 L1084.0,228.9 L1096.0,229.1 L1108.0,229.3 L1120.0,229.5 L1132.0,229.7 L1144.0,230.1 L1156.0,230.6 L1168.0,231.5 L1180.0,232.6 L1192.0,234.1 L1204.0,236.1 L1216.0,238.5 L1228.0,241.4 L1240.0,244.7 L1252.0,248.5 L1264.0,252.8 L1276.0,257.4 L1288.0,262.4 L1300.0,267.6 L1312.0,273.1 L1324.0,278.6 L1336.0,284.1 L1348.0,289.6 L1360.0,294.8 L1372.0,299.8 L1384.0,304.5 L1396.0,308.7 L1408.0,312.5 L1420.0,315.8 " stroke-opacity="0.174" stroke-width="1.2"></path><path d="M-20.0,331.6 L-8.0,329.1 L4.0,326.6 L16.0,324.0 L28.0,321.3 L40.0,318.4 L52.0,315.4 L64.0,312.0 L76.0,308.4 L88.0,304.4 L100.0,300.1 L112.0,295.4 L124.0,290.4 L136.0,285.1 L148.0,279.5 L160.0,273.6 L172.0,267.7 L184.0,261.7 L196.0,255.8 L208.0,250.0 L220.0,244.6 L232.0,239.6 L244.0,235.2 L256.0,231.4 L268.0,228.3 L280.0,226.0 L292.0,224.6 L304.0,224.0 L316.0,224.3 L328.0,225.4 L340.0,227.2 L352.0,229.7 L364.0,232.7 L376.0,236.2 L388.0,239.9 L400.0,243.8 L412.0,247.6 L424.0,251.3 L436.0,254.6 L448.0,257.5 L460.0,259.9 L472.0,261.7 L484.0,262.7 L496.0,263.0 L508.0,262.6 L520.0,261.4 L532.0,259.5 L544.0,257.0 L556.0,253.9 L568.0,250.2 L580.0,246.2 L592.0,241.9 L604.0,237.4 L616.0,232.8 L628.0,228.2 L640.0,223.7 L652.0,219.4 L664.0,215.3 L676.0,211.6 L688.0,208.3 L700.0,205.4 L712.0,203.0 L724.0,201.0 L736.0,199.6 L748.0,198.6 L760.0,198.1 L772.0,198.0 L784.0,198.4 L796.0,199.2 L808.0,200.4 L820.0,202.0 L832.0,203.9 L844.0,206.1 L856.0,208.5 L868.0,211.2 L880.0,214.0 L892.0,217.0 L904.0,220.0 L916.0,223.1 L928.0,226.1 L940.0,229.1 L952.0,231.9 L964.0,234.6 L976.0,237.0 L988.0,239.1 L1000.0,241.0 L1012.0,242.6 L1024.0,243.8 L1036.0,244.7 L1048.0,245.3 L1060.0,245.6 L1072.0,245.6 L1084.0,245.5 L1096.0,245.2 L1108.0,244.9 L1120.0,244.6 L1132.0,244.4 L1144.0,244.5 L1156.0,244.8 L1168.0,245.5 L1180.0,246.6 L1192.0,248.3 L1204.0,250.4 L1216.0,253.1 L1228.0,256.3 L1240.0,260.1 L1252.0,264.4 L1264.0,269.1 L1276.0,274.2 L1288.0,279.6 L1300.0,285.2 L1312.0,290.9 L1324.0,296.5 L1336.0,302.1 L1348.0,307.5 L1360.0,312.5 L1372.0,317.2 L1384.0,321.5 L1396.0,325.3 L1408.0,328.6 L1420.0,331.5 " stroke-opacity="0.160" stroke-width="1.2"></path><path d="M-20.0,347.8 L-8.0,345.9 L4.0,343.8 L16.0,341.5 L28.0,339.1 L40.0,336.4 L52.0,333.3 L64.0,329.9 L76.0,326.1 L88.0,321.9 L100.0,317.2 L112.0,312.1 L124.0,306.7 L136.0,300.8 L148.0,294.8 L160.0,288.5 L172.0,282.2 L184.0,275.9 L196.0,269.8 L208.0,264.0 L220.0,258.7 L232.0,253.8 L244.0,249.7 L256.0,246.2 L268.0,243.5 L280.0,241.7 L292.0,240.8 L304.0,240.7 L316.0,241.4 L328.0,242.8 L340.0,244.9 L352.0,247.6 L364.0,250.7 L376.0,254.1 L388.0,257.7 L400.0,261.3 L412.0,264.8 L424.0,268.1 L436.0,271.0 L448.0,273.4 L460.0,275.3 L472.0,276.6 L484.0,277.3 L496.0,277.3 L508.0,276.7 L520.0,275.4 L532.0,273.6 L544.0,271.2 L556.0,268.3 L568.0,265.0 L580.0,261.4 L592.0,257.5 L604.0,253.5 L616.0,249.3 L628.0,245.2 L640.0,241.0 L652.0,237.0 L664.0,233.2 L676.0,229.6 L688.0,226.3 L700.0,223.2 L712.0,220.6 L724.0,218.3 L736.0,216.4 L748.0,215.0 L760.0,214.0 L772.0,213.5 L784.0,213.4 L796.0,213.9 L808.0,214.8 L820.0,216.1 L832.0,217.9 L844.0,220.1 L856.0,222.7 L868.0,225.6 L880.0,228.7 L892.0,232.1 L904.0,235.6 L916.0,239.1 L928.0,242.6 L940.0,246.0 L952.0,249.2 L964.0,252.2 L976.0,254.8 L988.0,257.1 L1000.0,259.0 L1012.0,260.4 L1024.0,261.4 L1036.0,262.0 L1048.0,262.2 L1060.0,262.0 L1072.0,261.6 L1084.0,261.0 L1096.0,260.3 L1108.0,259.6 L1120.0,259.0 L1132.0,258.6 L1144.0,258.5 L1156.0,258.8 L1168.0,259.6 L1180.0,261.0 L1192.0,262.9 L1204.0,265.4 L1216.0,268.6 L1228.0,272.3 L1240.0,276.5 L1252.0,281.3 L1264.0,286.4 L1276.0,291.8 L1288.0,297.4 L1300.0,303.2 L1312.0,308.9 L1324.0,314.4 L1336.0,319.8 L1348.0,324.9 L1360.0,329.5 L1372.0,333.8 L1384.0,337.6 L1396.0,341.0 L1408.0,343.8 L1420.0,346.3 " stroke-opacity="0.146" stroke-width="1.2"></path><path d="M-20.0,365.0 L-8.0,363.4 L4.0,361.6 L16.0,359.5 L28.0,357.1 L40.0,354.3 L52.0,351.1 L64.0,347.4 L76.0,343.2 L88.0,338.6 L100.0,333.4 L112.0,327.9 L124.0,321.9 L136.0,315.7 L148.0,309.3 L160.0,302.8 L172.0,296.3 L184.0,290.0 L196.0,283.9 L208.0,278.3 L220.0,273.2 L232.0,268.7 L244.0,264.9 L256.0,261.9 L268.0,259.8 L280.0,258.4 L292.0,257.9 L304.0,258.1 L316.0,259.1 L328.0,260.7 L340.0,262.9 L352.0,265.5 L364.0,268.5 L376.0,271.6 L388.0,274.9 L400.0,278.1 L412.0,281.1 L424.0,283.9 L436.0,286.3 L448.0,288.3 L460.0,289.9 L472.0,290.9 L484.0,291.4 L496.0,291.3 L508.0,290.8 L520.0,289.6 L532.0,288.0 L544.0,286.0 L556.0,283.5 L568.0,280.7 L580.0,277.5 L592.0,274.1 L604.0,270.5 L616.0,266.7 L628.0,262.9 L640.0,258.9 L652.0,255.0 L664.0,251.1 L676.0,247.4 L688.0,243.8 L700.0,240.5 L712.0,237.4 L724.0,234.7 L736.0,232.3 L748.0,230.4 L760.0,229.0 L772.0,228.1 L784.0,227.8 L796.0,228.0 L808.0,228.8 L820.0,230.2 L832.0,232.1 L844.0,234.5 L856.0,237.4 L868.0,240.7 L880.0,244.3 L892.0,248.1 L904.0,252.1 L916.0,256.1 L928.0,260.0 L940.0,263.7 L952.0,267.1 L964.0,270.2 L976.0,272.8 L988.0,275.0 L1000.0,276.6 L1012.0,277.7 L1024.0,278.3 L1036.0,278.5 L1048.0,278.2 L1060.0,277.6 L1072.0,276.7 L1084.0,275.7 L1096.0,274.7 L1108.0,273.7 L1120.0,273.0 L1132.0,272.6 L1144.0,272.7 L1156.0,273.2 L1168.0,274.3 L1180.0,276.0 L1192.0,278.4 L1204.0,281.4 L1216.0,285.0 L1228.0,289.2 L1240.0,293.8 L1252.0,298.9 L1264.0,304.2 L1276.0,309.8 L1288.0,315.4 L1300.0,321.0 L1312.0,326.5 L1324.0,331.8 L1336.0,336.8 L1348.0,341.4 L1360.0,345.6 L1372.0,349.4 L1384.0,352.8 L1396.0,355.7 L1408.0,358.2 L1420.0,360.4 " stroke-opacity="0.132" stroke-width="1.2"></path><path d="M-20.0,382.8 L-8.0,381.3 L4.0,379.5 L16.0,377.4 L28.0,374.8 L40.0,371.7 L52.0,368.1 L64.0,364.0 L76.0,359.4 L88.0,354.2 L100.0,348.7 L112.0,342.7 L124.0,336.4 L136.0,329.9 L148.0,323.3 L160.0,316.8 L172.0,310.4 L184.0,304.2 L196.0,298.5 L208.0,293.2 L220.0,288.5 L232.0,284.5 L244.0,281.2 L256.0,278.7 L268.0,276.9 L280.0,275.9 L292.0,275.6 L304.0,276.1 L316.0,277.1 L328.0,278.7 L340.0,280.7 L352.0,283.0 L364.0,285.6 L376.0,288.3 L388.0,291.1 L400.0,293.8 L412.0,296.4 L424.0,298.8 L436.0,300.8 L448.0,302.6 L460.0,304.0 L472.0,304.9 L484.0,305.5 L496.0,305.6 L508.0,305.2 L520.0,304.5 L532.0,303.3 L544.0,301.7 L556.0,299.7 L568.0,297.3 L580.0,294.6 L592.0,291.6 L604.0,288.2 L616.0,284.6 L628.0,280.8 L640.0,276.9 L652.0,272.8 L664.0,268.7 L676.0,264.6 L688.0,260.6 L700.0,256.8 L712.0,253.3 L724.0,250.1 L736.0,247.3 L748.0,245.0 L760.0,243.3 L772.0,242.2 L784.0,241.8 L796.0,242.0 L808.0,243.0 L820.0,244.6 L832.0,246.9 L844.0,249.7 L856.0,253.0 L868.0,256.8 L880.0,260.9 L892.0,265.1 L904.0,269.5 L916.0,273.7 L928.0,277.8 L940.0,281.6 L952.0,285.0 L964.0,288.0 L976.0,290.4 L988.0,292.2 L1000.0,293.5 L1012.0,294.1 L1024.0,294.3 L1036.0,293.9 L1048.0,293.2 L1060.0,292.2 L1072.0,291.1 L1084.0,289.8 L1096.0,288.7 L1108.0,287.8 L1120.0,287.2 L1132.0,287.0 L1144.0,287.4 L1156.0,288.3 L1168.0,289.9 L1180.0,292.1 L1192.0,294.9 L1204.0,298.3 L1216.0,302.3 L1228.0,306.8 L1240.0,311.7 L1252.0,316.8 L1264.0,322.2 L1276.0,327.6 L1288.0,333.0 L1300.0,338.4 L1312.0,343.5 L1324.0,348.3 L1336.0,352.8 L1348.0,357.0 L1360.0,360.7 L1372.0,364.1 L1384.0,367.2 L1396.0,369.9 L1408.0,372.3 L1420.0,374.5 " stroke-opacity="0.118" stroke-width="1.2"></path><path d="M-20.0,400.8 L-8.0,399.2 L4.0,397.2 L16.0,394.8 L28.0,391.8 L40.0,388.3 L52.0,384.3 L64.0,379.7 L76.0,374.6 L88.0,369.0 L100.0,363.1 L112.0,356.9 L124.0,350.5 L136.0,343.9 L148.0,337.4 L160.0,331.1 L172.0,324.9 L184.0,319.2 L196.0,313.8 L208.0,309.0 L220.0,304.8 L232.0,301.3 L244.0,298.4 L256.0,296.2 L268.0,294.7 L280.0,293.8 L292.0,293.6 L304.0,294.0 L316.0,294.8 L328.0,296.1 L340.0,297.8 L352.0,299.7 L364.0,301.8 L376.0,304.1 L388.0,306.4 L400.0,308.7 L412.0,310.9 L424.0,313.0 L436.0,314.9 L448.0,316.6 L460.0,318.0 L472.0,319.2 L484.0,320.0 L496.0,320.4 L508.0,320.5 L520.0,320.2 L532.0,319.5 L544.0,318.4 L556.0,316.8 L568.0,314.8 L580.0,312.3 L592.0,309.5 L604.0,306.2 L616.0,302.6 L628.0,298.6 L640.0,294.4 L652.0,290.0 L664.0,285.4 L676.0,280.9 L688.0,276.4 L700.0,272.2 L712.0,268.2 L724.0,264.6 L736.0,261.6 L748.0,259.1 L760.0,257.3 L772.0,256.3 L784.0,256.0 L796.0,256.5 L808.0,257.8 L820.0,259.8 L832.0,262.5 L844.0,265.8 L856.0,269.6 L868.0,273.8 L880.0,278.3 L892.0,282.8 L904.0,287.4 L916.0,291.7 L928.0,295.8 L940.0,299.4 L952.0,302.6 L964.0,305.2 L976.0,307.2 L988.0,308.6 L1000.0,309.4 L1012.0,309.6 L1024.0,309.3 L1036.0,308.6 L1048.0,307.5 L1060.0,306.3 L1072.0,305.1 L1084.0,303.9 L1096.0,302.9 L1108.0,302.2 L1120.0,301.9 L1132.0,302.2 L1144.0,302.9 L1156.0,304.3 L1168.0,306.4 L1180.0,309.0 L1192.0,312.2 L1204.0,316.0 L1216.0,320.2 L1228.0,324.8 L1240.0,329.6 L1252.0,334.7 L1264.0,339.8 L1276.0,344.9 L1288.0,350.0 L1300.0,354.8 L1312.0,359.5 L1324.0,363.8 L1336.0,367.9 L1348.0,371.6 L1360.0,375.1 L1372.0,378.3 L1384.0,381.2 L1396.0,383.9 L1408.0,386.4 L1420.0,388.8 " stroke-opacity="0.104" stroke-width="1.2"></path><path d="M-20.0,418.4 L-8.0,416.6 L4.0,414.2 L16.0,411.3 L28.0,407.9 L40.0,403.9 L52.0,399.4 L64.0,394.4 L76.0,389.0 L88.0,383.2 L100.0,377.2 L112.0,370.9 L124.0,364.6 L136.0,358.3 L148.0,352.0 L160.0,346.0 L172.0,340.3 L184.0,335.0 L196.0,330.2 L208.0,325.8 L220.0,322.0 L232.0,318.8 L244.0,316.2 L256.0,314.1 L268.0,312.7 L280.0,311.7 L292.0,311.3 L304.0,311.4 L316.0,311.9 L328.0,312.7 L340.0,313.9 L352.0,315.4 L364.0,317.1 L376.0,318.9 L388.0,320.9 L400.0,322.9 L412.0,325.0 L424.0,327.0 L436.0,329.0 L448.0,330.9 L460.0,332.6 L472.0,334.1 L484.0,335.3 L496.0,336.2 L508.0,336.8 L520.0,336.9 L532.0,336.6 L544.0,335.9 L556.0,334.6 L568.0,332.7 L580.0,330.3 L592.0,327.4 L604.0,324.0 L616.0,320.0 L628.0,315.7 L640.0,311.1 L652.0,306.2 L664.0,301.2 L676.0,296.2 L688.0,291.3 L700.0,286.7 L712.0,282.5 L724.0,278.7 L736.0,275.6 L748.0,273.2 L760.0,271.6 L772.0,270.8 L784.0,270.8 L796.0,271.8 L808.0,273.5 L820.0,276.0 L832.0,279.2 L844.0,282.9 L856.0,287.1 L868.0,291.6 L880.0,296.2 L892.0,300.8 L904.0,305.3 L916.0,309.5 L928.0,313.3 L940.0,316.6 L952.0,319.4 L964.0,321.6 L976.0,323.1 L988.0,324.0 L1000.0,324.3 L1012.0,324.2 L1024.0,323.6 L1036.0,322.7 L1048.0,321.6 L1060.0,320.4 L1072.0,319.3 L1084.0,318.3 L1096.0,317.6 L1108.0,317.4 L1120.0,317.5 L1132.0,318.2 L1144.0,319.5 L1156.0,321.3 L1168.0,323.7 L1180.0,326.7 L1192.0,330.1 L1204.0,333.9 L1216.0,338.1 L1228.0,342.6 L1240.0,347.2 L1252.0,351.9 L1264.0,356.7 L1276.0,361.4 L1288.0,365.9 L1300.0,370.3 L1312.0,374.5 L1324.0,378.5 L1336.0,382.2 L1348.0,385.8 L1360.0,389.1 L1372.0,392.3 L1384.0,395.4 L1396.0,398.3 L1408.0,401.1 L1420.0,403.9 " stroke-opacity="0.090" stroke-width="1.2"></path><path d="M-20.0,435.4 L-8.0,433.1 L4.0,430.3 L16.0,426.9 L28.0,423.0 L40.0,418.6 L52.0,413.8 L64.0,408.6 L76.0,403.1 L88.0,397.3 L100.0,391.3 L112.0,385.2 L124.0,379.2 L136.0,373.3 L148.0,367.5 L160.0,362.0 L172.0,356.7 L184.0,351.9 L196.0,347.4 L208.0,343.4 L220.0,339.8 L232.0,336.8 L244.0,334.2 L256.0,332.0 L268.0,330.4 L280.0,329.1 L292.0,328.4 L304.0,328.0 L316.0,328.0 L328.0,328.4 L340.0,329.1 L352.0,330.2 L364.0,331.5 L376.0,333.1 L388.0,334.9 L400.0,336.9 L412.0,339.1 L424.0,341.3 L436.0,343.6 L448.0,345.8 L460.0,347.9 L472.0,349.9 L484.0,351.6 L496.0,353.0 L508.0,354.0 L520.0,354.5 L532.0,354.4 L544.0,353.8 L556.0,352.5 L568.0,350.6 L580.0,348.1 L592.0,344.9 L604.0,341.1 L616.0,336.7 L628.0,332.0 L640.0,326.8 L652.0,321.5 L664.0,316.1 L676.0,310.7 L688.0,305.6 L700.0,300.8 L712.0,296.5 L724.0,292.8 L736.0,289.8 L748.0,287.7 L760.0,286.4 L772.0,286.0 L784.0,286.6 L796.0,288.0 L808.0,290.2 L820.0,293.1 L832.0,296.6 L844.0,300.6 L856.0,305.0 L868.0,309.5 L880.0,314.1 L892.0,318.6 L904.0,322.8 L916.0,326.7 L928.0,330.1 L940.0,332.9 L952.0,335.2 L964.0,336.9 L976.0,338.0 L988.0,338.6 L1000.0,338.6 L1012.0,338.3 L1024.0,337.6 L1036.0,336.7 L1048.0,335.8 L1060.0,334.9 L1072.0,334.1 L1084.0,333.5 L1096.0,333.3 L1108.0,333.5 L1120.0,334.1 L1132.0,335.3 L1144.0,336.9 L1156.0,339.0 L1168.0,341.6 L1180.0,344.7 L1192.0,348.1 L1204.0,351.8 L1216.0,355.7 L1228.0,359.8 L1240.0,364.1 L1252.0,368.3 L1264.0,372.6 L1276.0,376.8 L1288.0,380.9 L1300.0,384.9 L1312.0,388.8 L1324.0,392.6 L1336.0,396.3 L1348.0,399.8 L1360.0,403.3 L1372.0,406.7 L1384.0,410.1 L1396.0,413.4 L1408.0,416.7 L1420.0,420.0 " stroke-opacity="0.076" stroke-width="1.2"></path><path d="M-20.0,451.4 L-8.0,448.6 L4.0,445.4 L16.0,441.6 L28.0,437.4 L40.0,432.8 L52.0,427.9 L64.0,422.6 L76.0,417.2 L88.0,411.6 L100.0,406.0 L112.0,400.3 L124.0,394.7 L136.0,389.2 L148.0,383.9 L160.0,378.8 L172.0,374.0 L184.0,369.5 L196.0,365.2 L208.0,361.3 L220.0,357.8 L232.0,354.6 L244.0,351.8 L256.0,349.4 L268.0,347.4 L280.0,345.7 L292.0,344.5 L304.0,343.6 L316.0,343.2 L328.0,343.2 L340.0,343.6 L352.0,344.4 L364.0,345.6 L376.0,347.1 L388.0,349.0 L400.0,351.2 L412.0,353.7 L424.0,356.3 L436.0,359.0 L448.0,361.7 L460.0,364.3 L472.0,366.7 L484.0,368.8 L496.0,370.5 L508.0,371.7 L520.0,372.4 L532.0,372.4 L544.0,371.7 L556.0,370.2 L568.0,368.1 L580.0,365.1 L592.0,361.5 L604.0,357.2 L616.0,352.4 L628.0,347.2 L640.0,341.7 L652.0,336.0 L664.0,330.3 L676.0,324.8 L688.0,319.6 L700.0,314.9 L712.0,310.8 L724.0,307.3 L736.0,304.7 L748.0,303.0 L760.0,302.2 L772.0,302.3 L784.0,303.3 L796.0,305.1 L808.0,307.6 L820.0,310.8 L832.0,314.5 L844.0,318.6 L856.0,322.9 L868.0,327.3 L880.0,331.6 L892.0,335.7 L904.0,339.5 L916.0,342.9 L928.0,345.9 L940.0,348.3 L952.0,350.1 L964.0,351.5 L976.0,352.3 L988.0,352.7 L1000.0,352.6 L1012.0,352.3 L1024.0,351.8 L1036.0,351.2 L1048.0,350.6 L1060.0,350.1 L1072.0,349.8 L1084.0,349.7 L1096.0,349.9 L1108.0,350.5 L1120.0,351.6 L1132.0,353.0 L1144.0,354.8 L1156.0,357.0 L1168.0,359.6 L1180.0,362.5 L1192.0,365.6 L1204.0,369.0 L1216.0,372.5 L1228.0,376.2 L1240.0,379.9 L1252.0,383.7 L1264.0,387.6 L1276.0,391.4 L1288.0,395.2 L1300.0,399.0 L1312.0,402.9 L1324.0,406.7 L1336.0,410.5 L1348.0,414.3 L1360.0,418.1 L1372.0,421.9 L1384.0,425.7 L1396.0,429.5 L1408.0,433.2 L1420.0,436.9 " stroke-opacity="0.062" stroke-width="1.2"></path></g>
</svg>